<svg xmlns="http://www.w3.org/2000/svg" id="svg2" width="950" height="475" viewBox="0 0 950 475"><style>.hand1{animation:hand1Animation linear 1.5s;animation-iteration-count:infinite;transform-origin:50% 50%;-webkit-animation:hand1Animation linear 1.5s;-webkit-animation-iteration-count:infinite;-webkit-transform-origin:50% 50%;-moz-animation:hand1Animation linear 1.5s;-moz-animation-iteration-count:infinite;-moz-transform-origin:50% 50%;-o-animation:hand1Animation linear 1.5s;-o-animation-iteration-count:infinite;-o-transform-origin:50% 50%;-ms-animation:hand1Animation linear 1.5s;-ms-animation-iteration-count:infinite;-ms-transform-origin:50% 50%}@keyframes hand1Animation{0%{transform:translate(0px,0px)}50%{transform:translate(0px,2px)}100%{transform:translate(0px,0px)}}@-moz-keyframes hand1Animation{0%{-moz-transform:translate(0px,0px)}50%{-moz-transform:translate(0px,2px)}100%{-moz-transform:translate(0px,0px)}}@-webkit-keyframes hand1Animation{0%{-webkit-transform:translate(0px,0px)}50%{-webkit-transform:translate(0px,2px)}100%{-webkit-transform:translate(0px,0px)}}@-o-keyframes hand1Animation{0%{-o-transform:translate(0px,0px)}50%{-o-transform:translate(0px,2px)}100%{-o-transform:translate(0px,0px)}}@-ms-keyframes hand1Animation{0%{-ms-transform:translate(0px,0px)}50%{-ms-transform:translate(0px,2px)}100%{-ms-transform:translate(0px,0px)}}.arm2{animation:arm2Animation linear 1.5s;animation-iteration-count:infinite;transform-origin:50% 50%;-webkit-animation:arm2Animation linear 1.5s;-webkit-animation-iteration-count:infinite;-webkit-transform-origin:50% 50%;-moz-animation:arm2Animation linear 1.5s;-moz-animation-iteration-count:infinite;-moz-transform-origin:50% 50%;-o-animation:arm2Animation linear 1.5s;-o-animation-iteration-count:infinite;-o-transform-origin:50% 50%;-ms-animation:arm2Animation linear 2s;-ms-animation-iteration-count:infinite;-ms-transform-origin:50% 50%}@keyframes arm2Animation{0%{transform:translate(0px,0px) rotate(0deg)}50%{transform:translate(4px,3px) rotate(-7deg)}100%{transform:translate(0px,0px) rotate(0deg)}}@-moz-keyframes arm2Animation{0%{-moz-transform:translate(0px,0px) rotate(0deg)}50%{-moz-transform:translate(4px,3px) rotate(-7deg)}100%{-moz-transform:translate(0px,0px) rotate(0deg)}}@-webkit-keyframes arm2Animation{0%{-webkit-transform:translate(0px,0px) rotate(0deg)}50%{-webkit-transform:translate(4px,3px) rotate(-7deg)}100%{-webkit-transform:translate(0px,0px) rotate(0deg)}}@-o-keyframes arm2Animation{0%{-o-transform:translate(0px,0px) rotate(0deg)}50%{-o-transform:translate(4px,3px) rotate(-7deg)}100%{-o-transform:translate(0px,0px) rotate(0deg)}}@-ms-keyframes arm2Animation{0%{-ms-transform:translate(0px,0px) rotate(0deg)}50%{-ms-transform:translate(4px,3px) rotate(-7deg)}100%{-ms-transform:translate(0px,0px) rotate(0deg)}}</style><defs id="defs4"><linearGradient id="linearGradient6" x2="1" gradientUnits="userSpaceOnUse" gradientTransform="matrix(0,317.28851,317.28851,0,266.25369,271.67969)"><stop id="stop8" offset="0" stop-color="#7debd5"/><stop id="stop10" offset="1" stop-color="#25b3f7"/></linearGradient><clipPath id="clipPath12"><path id="path14" d="M0 621h567V0H0v621z"/></clipPath><clipPath id="clipPath16"><path id="path18" d="M35 469h460.3V263.6H35V469z"/></clipPath><clipPath id="clipPath20"><path id="path22" d="M491.2 394.5h4.5v-131h-4.5v131z"/></clipPath><clipPath id="clipPath24"><path id="path26" d="M86.6 431h4v-55.5h-4V431z"/></clipPath><clipPath id="clipPath28"><path id="path30" d="M94.2 431h4v-55.5h-4V431z"/></clipPath><clipPath id="clipPath32"><path id="path34" d="M102 431h3.8v-55.5h-4V431z"/></clipPath><clipPath id="clipPath36"><path id="path38" d="M109.5 431h4v-55.5h-4V431z"/></clipPath><clipPath id="clipPath40"><path id="path42" d="M117.2 426.4h4v-51h-4v51z"/></clipPath><clipPath id="clipPath44"><path id="path46" d="M125 424.7h3.8v-49.2h-4v49.2z"/></clipPath><clipPath id="clipPath48"><path id="path50" d="M132.5 424.7h4v-49.2h-4v49.2z"/></clipPath><clipPath id="clipPath52"><path id="path54" d="M140.2 424.7h4v-49.2h-4v49.2z"/></clipPath><clipPath id="clipPath56"><path id="path58" d="M147.8 424.7h4v-49.2h-4v49.2z"/></clipPath><clipPath id="clipPath60"><path id="path62" d="M155.5 424.7h4v-49.2h-4v49.2z"/></clipPath><clipPath id="clipPath64"><path id="path66" d="M322 493.4h90.4V472H322v21.4z"/></clipPath><clipPath id="clipPath68"><path id="path70" d="M72.5 503.6H139v-20.3H72.6v20.3z"/></clipPath><clipPath id="clipPath72"><path id="path74" d="M135.4 576H202v-29h-66.6v29z"/></clipPath><clipPath id="clipPath76"><path id="path78" d="M263 190.8h124.7v-26H263v26z"/></clipPath><clipPath id="clipPath80"><path id="path82" d="M284 92.2h95.3V54.4H284v37.8z"/></clipPath><clipPath id="clipPath84"><path id="path86" d="M290 239.5h72.5v-16.8H290v16.8z"/></clipPath><clipPath id="clipPath88"><path id="path90" d="M334.8 194.3h26.8V97.7h-26.8v96.6z"/></clipPath><clipPath id="clipPath92"><path id="path94" d="M345.3 55h16.3v-3.7h-16.3V55z"/></clipPath><clipPath id="clipPath96"><path id="path98" d="M317 53.4h16v-3.8h-16v3.8z"/></clipPath><clipPath id="clipPath100"><path id="path102" d="M308.2 190H331v-24.3h-22.8V190z"/></clipPath><clipPath id="clipPath104"><path id="path106" d="M237.7 374.5h161.5V229.7H237.7v144.8z"/></clipPath><clipPath id="clipPath108"><path id="path110" d="M294 454.8h57v-55.6h-57v55.6z"/></clipPath><clipPath id="clipPath112"><path id="path114" d="M295.6 454.8h27.6v-48.6h-27.6v48.6z"/></clipPath><clipPath id="clipPath116"><path id="path118" d="M326.5 419.2H341v-7.7h-14.5v7.7z"/></clipPath><clipPath id="clipPath120"><path id="path122" d="M305 419.2h14.5v-7.6H305v7.6z"/></clipPath><clipPath id="clipPath124"><path id="path126" d="M301 436.3h43.6v-35H301v35z"/></clipPath><radialGradient id="radialGradient128" cx="0" cy="0" r="1" fx="0" fy="0" gradientUnits="userSpaceOnUse" gradientTransform="matrix(2.4693055,0,0,-2.2203996,332.45316,415.02759)" spreadMethod="pad"><stop id="stop130" offset="0" stop-color="#0ff"/><stop id="stop132" offset="0" stop-color="#0ff"/><stop id="stop134" offset="1" stop-color="#1476ff"/><stop id="stop136" offset="1" stop-color="#1476ff"/></radialGradient><clipPath id="clipPath138"><path id="path140" d="M0 621h567V0H0v621z"/></clipPath><clipPath id="clipPath142"><path id="path144" d="M330.3 417h4.3v-4h-4.3v4z"/></clipPath><clipPath id="clipPath146"><path id="path148" d="M327.8 417h9.6v-4.4h-9.6v4.5z"/></clipPath><radialGradient id="radialGradient150" cx="0" cy="0" r="1" fx="0" fy="0" gradientUnits="userSpaceOnUse" gradientTransform="matrix(-2.4696698,0,0,-2.2207272,313.44238,415.0376)" spreadMethod="pad"><stop id="stop152" offset="0" stop-color="#0ff"/><stop id="stop154" offset="0" stop-color="#0ff"/><stop id="stop156" offset="1" stop-color="#1476ff"/><stop id="stop158" offset="1" stop-color="#1476ff"/></radialGradient><clipPath id="clipPath160"><path id="path162" d="M0 621h567V0H0v621z"/></clipPath><clipPath id="clipPath164"><path id="path166" d="M311.2 417h4.4v-4h-4.4v4z"/></clipPath><clipPath id="clipPath168"><path id="path170" d="M308.5 417h9.6v-4.4h-9.4v4.5z"/></clipPath><clipPath id="clipPath172"><path id="path174" d="M333 416.5h1.5V415H333v1.5z"/></clipPath><clipPath id="clipPath176"><path id="path178" d="M314 416.5h1.6V415H314v1.5z"/></clipPath><clipPath id="clipPath180"><path id="path182" d="M316.6 396.3h13V395h-13v1.3z"/></clipPath><clipPath id="clipPath184"><path id="path186" d="M318.8 395.2h8v-1.6h-8v1.6z"/></clipPath><clipPath id="clipPath188"><path id="path190" d="M319.7 395.2h6.3v-1h-6.3v1z"/></clipPath><clipPath id="clipPath192"><path id="path194" d="M320 397.2h7v-1h-7v1z"/></clipPath><clipPath id="clipPath196"><path id="path198" d="M319 403h8.4v-2.4H319v2.5z"/></clipPath><clipPath id="clipPath200"><path id="path202" d="M320 401.8h2v-.4h-2v.4z"/></clipPath><clipPath id="clipPath204"><path id="path206" d="M324.5 401.8h1.7v-.5h-1.7v.5z"/></clipPath><clipPath id="clipPath208"><path id="path210" d="M318.6 415h2.4v-10.6h-2.4V415z"/></clipPath><clipPath id="clipPath212"><path id="path214" d="M302 461.8h30.8v-17h-31v17z"/></clipPath><clipPath id="clipPath216"><path id="path218" d="M85.6 275.2h57.8v-12.7H85.6v12.7z"/></clipPath><clipPath id="clipPath220"><path id="path222" d="M421.4 309.6H471v-10h-49.6v10z"/></clipPath><clipPath id="clipPath224"><path id="path226" d="M413.6 277h60.2v-11.4h-60.2V277z"/></clipPath><clipPath id="clipPath228"><path id="path230" d="M416 296.2h52v-7h-52v7z"/></clipPath><clipPath id="clipPath232"><path id="path234" d="M420 286.3h59.7v-6H420v6z"/></clipPath><clipPath id="clipPath236"><path id="path238" d="M456.8 324.7H533v-60h-76v60z"/></clipPath><clipPath id="clipPath240"><path id="path242" d="M264.7 333.8h119.8v-65.2H264.7v65z"/></clipPath><clipPath id="clipPath244"><path id="path246" d="M255.7 332.6h125.5V263H255.7v69.6z"/></clipPath><linearGradient id="linearGradient248" x2="1" gradientUnits="userSpaceOnUse" gradientTransform="matrix(49.064339,28.327311,28.327311,-49.064339,457.43161,319.33255)"><stop id="stop250" offset="0" stop-color="#009895"/><stop id="stop252" offset=".4" stop-color="#009895"/><stop id="stop254" offset="1" stop-color="#1b626a"/></linearGradient><clipPath id="clipPath256"><path id="path258" d="M0 621h567V0H0v621z"/></clipPath><clipPath id="clipPath260"><path id="path262" d="M472.2 370.5H495v-74.2h-22.8v74.2z"/></clipPath><linearGradient id="linearGradient264" x2="1" gradientUnits="userSpaceOnUse" gradientTransform="matrix(60.035198,0,0,-60.035198,432.51068,274.57764)"><stop id="stop266" offset="0" stop-color="#00b5aa"/><stop id="stop268" offset=".4" stop-color="#00b5aa"/><stop id="stop270" offset="1" stop-color="#3d536e"/></linearGradient><linearGradient id="linearGradient272" x2="1" gradientUnits="userSpaceOnUse" gradientTransform="matrix(25.390785,25.390785,25.390785,-25.390785,442.56012,373.98486)"><stop id="stop274" offset="0" stop-color="#2a6070"/><stop id="stop276" offset="0" stop-color="#2a6070"/><stop id="stop278" offset=".3" stop-color="#2a6070"/><stop id="stop280" offset="1" stop-color="#17787a"/></linearGradient><clipPath id="clipPath282"><path id="path284" d="M0 621h567V0H0v621z"/></clipPath><clipPath id="clipPath286"><path id="path288" d="M423 400.2h62v-18.5h-62V400z"/></clipPath><linearGradient id="linearGradient290" x2="1" gradientUnits="userSpaceOnUse" gradientTransform="matrix(23.504225,0,0,-23.504225,406.76559,408.41547)"><stop id="stop292" offset="0" stop-color="#265866"/><stop id="stop294" offset="0" stop-color="#265866"/><stop id="stop296" offset=".3" stop-color="#265866"/><stop id="stop298" offset="1" stop-color="#177578"/></linearGradient><clipPath id="clipPath300"><path id="path302" d="M0 621h567V0H0v621z"/></clipPath><clipPath id="clipPath304"><path id="path306" d="M406.8 421.5H429v-20h-22v20z"/></clipPath><linearGradient id="linearGradient308" x2="1" gradientUnits="userSpaceOnUse" gradientTransform="matrix(39.198265,0,0,-39.198265,386.36429,387.59915)"><stop id="stop310" offset="0" stop-color="#265866"/><stop id="stop312" offset="0" stop-color="#265866"/><stop id="stop314" offset=".3" stop-color="#265866"/><stop id="stop316" offset="1" stop-color="#177578"/></linearGradient><clipPath id="clipPath318"><path id="path320" d="M0 621h567V0H0v621z"/></clipPath><clipPath id="c"><path id="path323" d="M259 387.2h157V262.6H259v124.6z"/></clipPath><clipPath id="d"><path id="path326" d="M259 387.2h157V262.6H259v124.6z"/></clipPath><clipPath id="e"><path id="path329" d="M386.4 387.2L259 262.6h156.5l.6 106-29.5 18.6z"/></clipPath><clipPath id="a"><path id="path332" d="M-24291 24885H8475V-7881h-32766v32766z"/></clipPath><clipPath id="b"><path id="path335" d="M-24291 24885H8475V-7881h-32766v32766z"/></clipPath><linearGradient id="g" x2="1" gradientUnits="userSpaceOnUse" gradientTransform="matrix(-79.500137,-121.00024,121.00024,-79.500137,411.47852,375.49805)"><stop id="stop338" offset="0" stop-color="#fff"/><stop id="stop340" offset="1" stop-color="#231f20"/></linearGradient><mask id="mask342" width="1" height="1" x="0" y="0" maskUnits="userSpaceOnUse"><g id="g344" clip-path="url(#c)" opacity=".5"><g id="g346" clip-path="url(#e)"><path id="path348" fill="url(#g)" d="M386.4 387.2L259 262.6h156.5l.6 106-29.5 18.6z" mask="url(#f)"/></g></g></mask><clipPath id="clipPath350"><path id="path352" d="M259 387.2h157V262.6H259v124.6z"/></clipPath><linearGradient id="linearGradient354" x2="1" gradientUnits="userSpaceOnUse" gradientTransform="matrix(-79.500137,-121.00024,121.00024,-79.500137,411.47897,375.49802)"><stop id="stop356" offset="0" stop-color="#ffcd30"/><stop id="stop358" offset="1" stop-color="#fff"/></linearGradient><clipPath id="clipPath360"><path id="path362" d="M0 75h567V23.5H0V75z"/></clipPath><clipPath id="clipPath364"><path id="path366" d="M527 245.2h11v-14h-11v14z"/></clipPath><linearGradient id="linearGradient368" x2="1" gradientUnits="userSpaceOnUse" gradientTransform="matrix(-4.1919904,36.597034,-36.597034,-4.1919904,147.33121,302.39835)"><stop id="stop370" offset="0" stop-color="#cce2df"/><stop id="stop372" offset="1" stop-color="#81d2c1"/></linearGradient><clipPath id="clipPath374"><path id="path376" d="M0 621h567V0H0v621z"/></clipPath><clipPath id="clipPath378"><path id="path380" d="M144.8 339.6h8v-37h-8v37z"/></clipPath><clipPath id="clipPath382"><path id="path384" d="M139.8 303.8l-3.5 62.4 3.5-62.4z"/></clipPath><clipPath id="clipPath386"><path id="path388" d="M0 621h567V0H0v621z"/></clipPath><clipPath id="clipPath390"><path id="path392" d="M156.3 369h8v-62.8h-8V369z"/></clipPath><clipPath id="clipPath394"><path id="path396" d="M137 364.5h5.3v-63.2H137v63.2z"/></clipPath><linearGradient id="linearGradient398" x2="1" gradientUnits="userSpaceOnUse" gradientTransform="matrix(33.333,0,0,-33.333,136.5571,286.44919)"><stop id="stop400" offset="0" stop-color="#545973"/><stop id="stop402" offset=".8" stop-color="#86c149"/><stop id="stop404" offset=".9" stop-color="#86c149"/><stop id="stop406" offset="1" stop-color="#86c149"/></linearGradient><clipPath id="clipPath408"><path id="path410" d="M0 621h567V0H0v621z"/></clipPath><clipPath id="clipPath412"><path id="path414" d="M161.6 310.4h5.4V263h-5.4v47.4z"/></clipPath><linearGradient id="linearGradient416" x2="1" gradientUnits="userSpaceOnUse" gradientTransform="matrix(11.503486,0,0,-11.503486,195.38631,281.47095)"><stop id="stop418" offset="0" stop-color="#542a38"/><stop id="stop420" offset="1" stop-color="#d65730"/></linearGradient><clipPath id="clipPath422"><path id="path424" d="M0 621h567V0H0v621z"/></clipPath><clipPath id="clipPath426"><path id="path428" d="M195.4 292.8H207v-22.6h-11.6v22.6z"/></clipPath><linearGradient id="linearGradient430" x2="1" gradientUnits="userSpaceOnUse" gradientTransform="matrix(25.628292,0,0,-25.628292,176.7007,278.22897)"><stop id="stop432" offset="0" stop-color="#824458"/><stop id="stop434" offset=".6" stop-color="#ff6839"/><stop id="stop436" offset=".8" stop-color="#ff6839"/><stop id="stop438" offset="1" stop-color="#ff6839"/></linearGradient><clipPath id="clipPath440"><path id="path442" d="M0 621h567V0H0v621z"/></clipPath><clipPath id="clipPath444"><path id="path446" d="M195.8 292h3.7v-24h-3.7v24z"/></clipPath><clipPath id="clipPath448"><path id="path450" d="M181.4 293.7H202v-.8h-20.6v.6z"/></clipPath><clipPath id="clipPath452"><path id="path454" d="M515.2 497.4h36.2v-46h-36.2v46z"/></clipPath><clipPath id="clipPath456"><path id="path458" d="M514.5 492.7H548v-38h-33.5v38z"/></clipPath><linearGradient id="linearGradient460" x2="1" gradientUnits="userSpaceOnUse" gradientTransform="matrix(33.954998,0,0,-33.954998,514.29291,494.86484)"><stop id="stop462" offset="0" stop-color="#87492a"/><stop id="stop464" offset=".3" stop-color="#ff8754"/><stop id="stop466" offset=".5" stop-color="#ff8754"/><stop id="stop468" offset=".6" stop-color="#ff8754"/><stop id="stop470" offset="1" stop-color="#7d3b24"/><stop id="stop472" offset="1" stop-color="#7d3b24"/></linearGradient><clipPath id="clipPath474"><path id="path476" d="M0 621h567V0H0v621z"/></clipPath><linearGradient id="linearGradient478" x2="1" gradientUnits="userSpaceOnUse" gradientTransform="matrix(5.4112,0,0,-5.4112,528.32306,494.76178)"><stop id="stop480" offset="0" stop-color="#414141"/><stop id="stop482" offset=".3" stop-color="#acacac"/><stop id="stop484" offset=".5" stop-color="#acacac"/><stop id="stop486" offset=".6" stop-color="#acacac"/><stop id="stop488" offset="1"/></linearGradient><clipPath id="clipPath490"><path id="path492" d="M0 621h567V0H0v621z"/></clipPath><clipPath id="clipPath494"><path id="path496" d="M32 245.7h183.7V231H32v14.7z"/></clipPath><clipPath id="clipPath498"><path id="path500" d="M47 197.2h155.4v-3H47v3z"/></clipPath><clipPath id="clipPath502"><path id="path504" d="M47 161h155.4v-3H47v3z"/></clipPath><clipPath id="clipPath506"><path id="path508" d="M47 125h155.4v-3H47v3z"/></clipPath><clipPath id="clipPath510"><path id="path512" d="M47 88.7h155.4v-3H47v3z"/></clipPath><clipPath id="clipPath514"><path id="path516" d="M409.4 469H438v-21h-28.6v21z"/></clipPath><clipPath id="clipPath518"><path id="path520" d="M235 367h4.7v-16H235v16z"/></clipPath><clipPath id="clipPath522"><path id="path524" d="M241.7 368.4h10v-18h-10v18z"/></clipPath><clipPath id="clipPath526"><path id="path528" d="M238 373.3h11.6v-6.6H238v6.6z"/></clipPath><clipPath id="t"><path id="path531" d="M344.8 85h40V37h-40v48z"/></clipPath><clipPath id="u"><path id="path534" d="M349.6 79.4h4v-4.2h-4v4.2z"/></clipPath><linearGradient id="linearGradient536" x2="1" gradientUnits="userSpaceOnUse" gradientTransform="matrix(2.3619003,2.2744248,-2.2744248,2.3619003,342.05847,119.77039)"><stop id="stop538" offset="0" stop-color="#55913b"/><stop id="stop540" offset=".7" stop-color="#3f6b2c"/><stop id="stop542" offset="1" stop-color="#3f6b2c"/></linearGradient><clipPath id="v"><path id="path545" d="M348 98h14v-.8h-14v.8z"/></clipPath><clipPath id="w"><path id="path548" d="M291 76.5h2.3V74H291v2.5z"/></clipPath><clipPath id="x"><path id="path551" d="M322.4 77h2.3v-2.8h-2.3V77z"/></clipPath><clipPath id="n"><path id="path554" d="M391.6 199h77.8v-97h-77.8v97z"/></clipPath><clipPath id="o"><path id="path557" d="M421.5 199h48v-60h-48v60z"/></clipPath><clipPath id="p"><path id="path560" d="M375.3 199h84v-97h-84v97z"/></clipPath><clipPath id="q"><path id="path563" d="M400.5 203.3h3.2v-109h-3.2v109z"/></clipPath><clipPath id="r"><path id="path566" d="M398.2 203.3h3.2v-109h-3.2v109z"/></clipPath><clipPath id="s"><path id="path569" d="M396 203.3h3v-109h-3v109z"/></clipPath><clipPath id="z"><path id="path572" d="M487.3 397.7h32.4V390h-32.4v7.7z"/></clipPath><clipPath id="y"><path id="path575" d="M484 390h32v-7.5h-32v7.6z"/></clipPath><clipPath id="clipPath577"><path id="path579" d="M527 245.2h11v-14h-11v14z"/></clipPath><clipPath id="clipPath581"><path id="path583" d="M302 461.8h30.8v-17h-31v17z"/></clipPath><clipPath id="clipPath585"><path id="path587" d="M318.6 415h2.4v-10.6h-2.4V415z"/></clipPath><clipPath id="clipPath589"><path id="path591" d="M324.5 401.8h1.7v-.5h-1.7v.5z"/></clipPath><clipPath id="clipPath593"><path id="path595" d="M320 401.8h2v-.4h-2v.4z"/></clipPath><clipPath id="clipPath597"><path id="path599" d="M319 403h8.4v-2.4H319v2.5z"/></clipPath><clipPath id="clipPath601"><path id="path603" d="M301 436.3h43.6v-35H301v35z"/></clipPath><clipPath id="clipPath605"><path id="path607" d="M295.6 454.8h27.6v-48.6h-27.6v48.6z"/></clipPath><clipPath id="clipPath609"><path id="path611" d="M294 454.8h57v-55.6h-57v55.6z"/></clipPath><clipPath id="clipPath613"><path id="path615" d="M235 367h4.7v-16H235v16z"/></clipPath><clipPath id="clipPath617"><path id="path619" d="M241.7 368.4h10v-18h-10v18z"/></clipPath><clipPath id="clipPath621"><path id="path623" d="M238 373.3h11.6v-6.6H238v6.6z"/></clipPath><clipPath id="clipPath625"><path id="path627" d="M308.2 190H331v-24.3h-22.8V190z"/></clipPath><clipPath id="clipPath629"><path id="path631" d="M317 53.4h16v-3.8h-16v3.8z"/></clipPath><clipPath id="clipPath633"><path id="path635" d="M345.3 55h16.3v-3.7h-16.3V55z"/></clipPath><clipPath id="clipPath637"><path id="path639" d="M334.8 194.3h26.8V97.7h-26.8v96.6z"/></clipPath><clipPath id="ai"><path id="path642" d="M47 88.7h155.4v-3H47v3z"/></clipPath><clipPath id="ah"><path id="path645" d="M47 125h155.4v-3H47v3z"/></clipPath><clipPath id="ag"><path id="path648" d="M47 161h155.4v-3H47v3z"/></clipPath><clipPath id="af"><path id="path651" d="M47 197.2h155.4v-3H47v3z"/></clipPath><clipPath id="ae"><path id="path654" d="M32 245.7h183.7V231H32v14.7z"/></clipPath><mask id="ab" width="1" height="1" x="0" y="0" maskUnits="userSpaceOnUse"><g id="g657" clip-path="url(#h)" opacity=".5"><g id="g659" clip-path="url(#j)"><path id="path661" fill="url(#g)" d="M386.4 387.2L259 262.6h156.5l.6 106-29.5 18.6z" mask="url(#k)"/></g></g></mask><clipPath id="h"><path id="path664" d="M259 387.2h157V262.6H259v124.6z"/></clipPath><clipPath id="i"><path id="path667" d="M259 387.2h157V262.6H259v124.6z"/></clipPath><clipPath id="j"><path id="path670" d="M386.4 387.2L259 262.6h156.5l.6 106-29.5 18.6z"/></clipPath><clipPath id="l"><path id="path673" d="M-24291 24885H8475V-7881h-32766v32766z"/></clipPath><clipPath id="m"><path id="path676" d="M-24291 24885H8475V-7881h-32766v32766z"/></clipPath><clipPath id="ac"><path id="path679" d="M259 387.2h157V262.6H259v124.6z"/></clipPath><linearGradient id="ad" x2="1" gradientUnits="userSpaceOnUse" gradientTransform="matrix(-79.500137,-121.00024,121.00024,-79.500137,411.47897,375.49802)"><stop id="stop682" offset="0" stop-color="#ffcd30"/><stop id="stop684" offset="1" stop-color="#fff"/></linearGradient><clipPath id="aa"><path id="path687" d="M255.7 332.6h125.5V263H255.7v69.6z"/></clipPath><clipPath id="Z"><path id="path690" d="M264.7 333.8h119.8v-65.2H264.7v65z"/></clipPath><clipPath id="Y"><path id="path693" d="M456.8 324.7H533v-60h-76v60z"/></clipPath><clipPath id="X"><path id="path696" d="M420 286.3h59.7v-6H420v6z"/></clipPath><clipPath id="W"><path id="path699" d="M416 296.2h52v-7h-52v7z"/></clipPath><clipPath id="V"><path id="path702" d="M413.6 277h60.2v-11.4h-60.2V277z"/></clipPath><clipPath id="U"><path id="path705" d="M421.4 309.6H471v-10h-49.6v10z"/></clipPath><clipPath id="T"><path id="path708" d="M302 461.8h30.8v-17h-31v17z"/></clipPath><clipPath id="S"><path id="path711" d="M318.6 415h2.4v-10.6h-2.4V415z"/></clipPath><clipPath id="R"><path id="path714" d="M324.5 401.8h1.7v-.5h-1.7v.5z"/></clipPath><clipPath id="Q"><path id="path717" d="M320 401.8h2v-.4h-2v.4z"/></clipPath><clipPath id="P"><path id="path720" d="M319 403h8.4v-2.4H319v2.5z"/></clipPath><clipPath id="O"><path id="path723" d="M301 436.3h43.6v-35H301v35z"/></clipPath><clipPath id="N"><path id="path726" d="M295.6 454.8h27.6v-48.6h-27.6v48.6z"/></clipPath><clipPath id="M"><path id="path729" d="M294 454.8h57v-55.6h-57v55.6z"/></clipPath><clipPath id="L"><path id="path732" d="M237.7 374.5h161.5V229.7H237.7v144.8z"/></clipPath><clipPath id="K"><path id="path735" d="M308.2 190H331v-24.3h-22.8V190z"/></clipPath><clipPath id="J"><path id="path738" d="M317 53.4h16v-3.8h-16v3.8z"/></clipPath><clipPath id="I"><path id="path741" d="M345.3 55h16.3v-3.7h-16.3V55z"/></clipPath><clipPath id="H"><path id="path744" d="M334.8 194.3h26.8V97.7h-26.8v96.6z"/></clipPath><clipPath id="G"><path id="path747" d="M290 239.5h72.5v-16.8H290v16.8z"/></clipPath><clipPath id="F"><path id="path750" d="M284 92.2h95.3V54.4H284v37.8z"/></clipPath><clipPath id="E"><path id="path753" d="M263 190.8h124.7v-26H263v26z"/></clipPath><clipPath id="D"><path id="path756" d="M527 245.2h11v-14h-11v14z"/></clipPath><clipPath id="C"><path id="path759" d="M235 367h4.7v-16H235v16z"/></clipPath><clipPath id="B"><path id="path762" d="M241.7 368.4h10v-18h-10v18z"/></clipPath><clipPath id="A"><path id="path765" d="M238 373.3h11.6v-6.6H238v6.6z"/></clipPath></defs><path id="path769" fill="#fff" d="M0 0h950v475H0z"/><path id="path771" fill-opacity=".2" d="M0 207h346.3v214.6H0zm603.8-18.5H950V403H603.7z"/><path id="path773" fill="#0095eb" d="M0 0h950v379H0z"/><path id="path775" fill="#fff" d="M694 208.3h183v-138H694v138z"/><path id="path777" fill="#b6e9f2" d="M699.4 202.8H872v-127H699.3v127z"/><path id="path779" fill="#9bd2db" d="M815.3 203h21.2V88h-21.3v115z"/><path id="path781" fill="#9bd2db" d="M871.8 203h-35.5V106h35.5V203zM769 203h46.4v-84.3H769V203zm12.3-92.4H805v8.2h-23.8v-8.2zm-82 0L749 157v46h-49.5v-92.4z"/><path id="path783" fill="#9bd2db" d="M703.5 95H729v28.8h-25.5V95z"/><path id="path785" fill="#9bd2db" d="M713.4 113.4h22V175h-22v-61.6z"/><g id="g787" transform="matrix(1.3063667,0,0,-1.3063654,258.51227,335.88839)" clip-path="url(#n)" opacity=".3"><path id="path789" fill="#fff" d="M391.6 199l77.6-97h.2v21.7L409.2 199h-17.6z"/></g><g id="g791" transform="matrix(1.3063667,0,0,-1.3063654,258.51227,335.88839)" clip-path="url(#o)" opacity=".3"><path id="path793" fill="#fff" d="M421.5 199l48-60v36.6l-19 23.5h-29z"/></g><g id="g795" transform="matrix(1.3063667,0,0,-1.3063654,258.51227,335.88839)" clip-path="url(#p)" opacity=".3"><path id="path797" fill="#fff" d="M375.3 199l77.6-97h6.3l-77.6 97h-6.5z"/></g><path id="path799" fill="#d0f5f3" d="M700.5 210l6 3.8V70.3h-6V210zm8.3 0l6.2 3.8V70.3h-6.3V210zm8.5 0l6 3.8V70.3h-6V210zm8.2 0l6.3 3.8V70.3h-6.3V210zm8.3 0l6.2 3.8V70.3h-6.3V210zm8.5 0l6 3.8V70.3h-6V210zm8.3 0l6 3.8V70.3h-6V210zm8.4 0l6 3.8V70.3h-6V210zm8.5 0l6 3.8V70.3h-6V210zm14.3-139.6V210l4 2.5 2 1.3V70.3h-6.2z"/><g id="g801" transform="matrix(1.3063667,0,0,-1.3063654,258.51227,335.88839)" clip-path="url(#q)"><path id="path803" fill="#e6e6e6" d="M400.5 203.3v-107l3.2-2v109h-3.2z"/></g><path id="path805" fill="#d0f5f3" d="M778.8 70.4V210l4 2.8 2 1.2V70.2h-6z"/><g id="g807" transform="matrix(1.3063667,0,0,-1.3063654,258.51227,335.88839)" clip-path="url(#r)"><path id="path809" fill="#e6e6e6" d="M398.2 203.3v-107l3.2-2v109h-3.2z"/></g><path id="path811" fill="#d0f5f3" d="M775.6 70.4V210l4 2.5 2 1.3V70.3h-6z"/><g id="g813" transform="matrix(1.3063667,0,0,-1.3063654,258.51227,335.88839)" clip-path="url(#s)"><path id="path815" fill="#e6e6e6" d="M396 203.3v-107l3-2v109h-3z"/></g><path id="path817" fill="#85827f" d="M688.5 65h193.3v5.4H688.5V65z"/><path id="path819" fill-opacity=".1" d="M0 0v379h348l88.3-312.8c25.6-19 67-35.7 77.8 0l97.3 313H950V0H0z"/><path id="path821" fill="#0093b1" d="M0 475h950v-89.6H0V475z"/><path id="path823" fill-opacity=".1" d="M0 385.4V475h950v-89.6H613l14 43.7c5 17-66 32-146.8 32-81 0-151.2-15-146.4-32l12.4-43.6H0z"/><path id="path825" fill="#e3ab43" d="M223.8 294h-94.4v110h94.3V294z"/><path id="path827" fill="#f0bb59" d="M136.3 301.3h80.6v96.2H136v-96.3z"/><g id="g829" fill-opacity=".2" transform="matrix(2.0137279,0,0,-2.0137256,-557.87987,472.00342)" clip-path="url(#t)"><path id="path831" d="M345.6 84h39v1H345V37h.8v47z"/></g><g id="g833" fill-opacity=".2" transform="matrix(2.0137279,0,0,-2.0137256,-557.87987,472.00342)" clip-path="url(#u)"><path id="path835" d="M353.7 77.3c0-1-1-2-2-2-1.2 0-2 1-2 2 0 1.2.8 2 2 2 1 0 2-.8 2-2"/></g><path id="path837" fill="#ccc" d="M152.5 314.5c0 2.3-2 4-4.3 4-2.2 0-4-2-4-4 0-2.6 1.8-4.4 4-4.4 2.6 0 4.3 2 4.3 4.4"/><path id="path839" fill="#f2f2f2" d="M149 313c0 1.3-.8 2-2 2-1.3 0-2-.6-2-2 0-1 .8-2 2-2 1 0 2 1 2 2"/><path id="path841" fill="#090" d="M167 241.3c.3-.6.5-1.3.5-2s-.3-1.3-.5-2c-.6-1.4-1.5-2.7-2.5-3.7-1.8-2-3.8-3.5-6-5-3.8-2.5-7.5-4.7-11-7.2 2 3 2 6.8 1.6 10.3-.4 3.6-1 7-1 10.7 0 1.5 0 3 1 4.2.3.7.6 1.3 1 1.7 1.4.4 2.6 0 3.6-.8 1-.6 1.7-1.6 2.5-2.5 1-1 2.3-1.3 3.4-1l1.7 1c1.4.8 3 .6 4.3-.4 1.2-.7 1.6-2 2-3.2"/><path id="path843" fill="#477323" d="M152.5 228c1.6 1.8 2.5 3.8 3 6.3.5-.6 1-.8 1.8-.8l-1.3 2c1.5-.4 3-.5 4.4-.5-.4.8-1.3 1.3-1.8 2-.7.5-1.2 1.4-1.2 2.4 1.7 0 3.3.2 5 .5l-4.5 1c1.6.3 3.6 1 4 2.4-.5-.7-1.5-1.3-2.4-1.3h-1c-.5 0-.6.8-.6 1.4l.5 1.5c.8 4 3.3 12.4 4.4 18.3.8 5.3 1.4 11.2 1 16.7l-1 .4c.8-5 .5-10-.5-14.6-1.3-6.6-2.5-12.6-4.6-19.3-.5-1.3-.5-2.5-1.4-3-.5 0-1.2-.3-1.6 0-.6 0-1.3.3-2 .6.8-.8 1.8-1.4 2.6-1.8-.3-.3-3-.7-3.7-.8 0-.5 4-1.3 3.6-2-.2-.7-3.7-2.8-4.6-2.5.4-1 2.8 0 3.4-.8.5-.7-.5-3.4-.8-4.2-.7-2.5-2-4.6-3.3-6.6.4 1 1.2 1.7 2 2.5"/><path id="path845" fill="#3f6b2c" d="M167 267c0-2 0-4 .4-6.4 0-3.2 0-7 .3-10.2.4-2.3 1.3-4.4 2-6.5h-.8l-.5.6c-1.5 3.4-1.6 7.2-1.8 10.8l-1 24.7h.8c-.5-1 .3-11 .4-13"/><path id="path847" fill="#55913b" d="M172.5 239.3c-1.3-2.6-2-5.4-1.5-8.2-.5.8-.6 1.8-.6 2.6 0 1.3 0 2.5-.3 3.5 0-.4-.4-1-.6-1.5v5c-.5-.3-1.3-.8-1.5-1.5 0 1.3 0 2.3.3 3.4 0 .5 0 1 .3 1.2.3.5.8.8 1.3.8 0-2.2 1-4 2.4-5.3"/><path id="path849" fill="#0a0" d="M200.8 208.8c-2.8 7.2-8.8 12.4-12.6 19.3-1.6 3-2.8 6-4.4 9-1.8 2.4-3.8 5-6 7.4-1.3 1.5-2.6 3-4.6 3.3-1.8.3-4-1.2-3.7-3h-.3l-2.4 1.8c-1.3.6-2.6.6-3.2-.3-.3-.3-.5-.7-.6-1.2-.5-3 .4-6 2-8.4 1.5-2.5 3.6-4.6 5.5-6.7l6.3-6.6c1.7-1.8 3.4-3.8 5.6-5 5.6-4.2 13-5 18-9.8"/><path id="path851" fill="#55913b" d="M173.8 232.5c.4 1 .6 2.3.4 3.4 2-3 4.3-5.8 6.6-8.4 1.4-1.2 2.8-3 4.3-4.6 2-2 4-4.3 6.4-5.8l-1.7.6c0-.3 0-.7-.2-1L187 221c-.3-.8-.4-1.8-.4-2.8-.2 2.2-1.2 4.2-2.5 5.8v-2c-.6 2-1.4 3.5-3 4.6l-1.5-2.8c0 .8 0 1.6-.3 2.4l-.7-.2v1.5l-.6-1.3-1.4 5c-.7-.4-1.2-1.2-1.5-2 .4 1.6.4 3.2 0 5-.6 0-1-.8-1-1.3"/><path id="path853" fill-opacity=".2" d="M188 228c-1.4 3-2.6 6-4.3 9-1.7 2.4-3.7 5-6 7.4-1.2 1.5-2.4 3-4.4 3.3-2 .3-4-1.2-3.8-3h-.3c0-2.4 2.3-4.3 3.8-6.2 1.6-2.3 2.5-5 4-7 2.3-3 5-5 7.6-7.5 1.3-1.8 2.5-3.8 4-5.3 1.8-1.7 4-2.8 6-4.2 2.3-1.6 4.3-3.5 6-5.8-2.6 7.3-8.8 12.6-12.6 19.4"/><path id="path855" fill-opacity=".2" d="M176 241c-1 0-2 0-2.8.4 1.3-2.5 3.4-4.5 6-5.5h-2.4c.3-.5.7-.8 1.2-.8-.3 0-.5-.2-.8-.4 2.6-2 5-3.6 8-4.7-1.6 0-3 .4-4.7.6 2.5-2 5-4 7-6.6-1.5.5-2.8 1.3-3.8 2 1.3-1 2.2-2.4 2.8-4-1 1.4-2.3 2.6-3.8 3.6-.7 1-1.7 1.5-2.4 2.5-1.3 1.4-2.3 2.4-3.2 4-2.6 4-6.8 7.8-8 12.8l7.4-2c-1.3 0-3 0-4.3.4 1.4-1 2.6-1.7 4-2"/><path id="path857" fill="#0a0" d="M165 233.4c-.6.6-1.8 0-2.3-1-.4-.8-.7-1.8-1.4-2.4-.7-.4-1.3-.4-2 0-1.3.3-2.2 1.3-2.6 2.5-.7 2-.7 4.3-2.2 5.8-1.3 1.2-3.5 1.4-5 .6-2-.8-3-2.4-3.8-4-1.8-5 0-10.8 2.2-15.8l9-23.7c1-2.5 2.6-5.8 5.4-6.3-2 7.2.2 14.8 2 22.2 1.8 7.2 3.5 15.2.6 22"/><path id="path859" fill-opacity=".1" d="M165 233.4c-.6.6-1.8 0-2.3-1-.4-.8-.7-1.8-1.4-2.4-.7-.4-1.3-.4-2 0 0-.8 0-1.5.2-2 1.5-8-2-16-2-24 0-2.4.4-5 1-7 1-3 2-5.6 3.8-8h.2c-2 7.3.3 15 2 22.3 2 7.2 3.5 15.2.6 22"/><path id="path861" fill-opacity=".2" d="M164.4 229c-1.3-1-3.3-1.6-5-1 1.6-8-2-16-2-24 0-2.4.5-5 1-7 0 .3 0 .5.5.5.6 0 1-1.3 1.5-1-1.3 1.4-2 2.6-2.5 4 .5 0 1-.3 1.3-.4-.8 1.4-1.3 3-1.3 4.4 1-.8 1.8-1.5 2.5-2.5-1 1.5-1.8 3.3-2.3 5l1.7-1c-1 2-1 4.3-.6 6.4l2.5-1.8-2 6.3c0-.5.5 0 .5.4v1.8h.8c.2 1.6 1.6 2.3 2.8 3-1-.6-3 .3-3 1.8.5-.3 1.3 0 1.5.5-.6 0-1.3.4-1.3.8 2 0 3.6 2 3.2 4"/><path id="path863" fill-opacity=".2" d="M158.8 195l-.8 6.3c0 1.4-.4 3-.3 4.4 0 1.6.4 3 .7 4.4 1 5 1.6 10 1.6 15 0 1.4 0 2.6-1 3-.4 0-1 0-1.3.3-1.4 0-2.4 1.2-3.3 2.2l-2.5 2.8-1.4 1.2c-.6 0-1.2 0-1.6-.5.6.3 1.3 0 2-.5l1-1.8c1-1.7 2.4-3.4 4.3-4-2.3 0-4.7.3-6.8 1 1.3-1.2 3-2 5-2.2.4 0 .8 0 1-.4.5-1 .5-2 0-3-.6-1-1.6-1.3-2.6-1.3l2.6-1-1-1c.5 0 1 0 1.3-.2v-1.8c.3 0 .5 0 .6-.4v-1c-.6-2-1.5-3.8-2.5-5.4h1.6l.4-5.4c0-3.7.5-7.5 2.8-10.5"/><path id="path865" fill="#68994b" d="M140.3 243.5c3.7 2 6.7 5.3 9.6 8.5 1 1.5 2.4 3 3 5 .5-.6 1.4-.4 2 0 2 1.3 3.6 2.5 5 4.3-.5-3.4-2.6-6.3-5-8.8-3.4-3-7.3-5.6-11-8-2.3-1.4-4.5-3-7-3.6-1.6-.6-3.6-.6-5-1.6 2 2 5.4 2.7 8 4"/><path id="path867" fill="#52783b" d="M132 239.4c3.3 2.5 7.5 3.7 10.6 5.8 1.3.8 2.3 1.8 3.3 2.6 2 2 4 4.2 5.6 6.6 2 2.5 3.5 5 5 7.7 1.3 2.3 2.5 4.4 3.3 6.8.3 1.2.5 2.7.6 4l.8 7.6h.8l-1.4-10c-.3-1.8-.6-3.3-1-4.6-.8-2.3-2-4.2-3.4-6-4.4-6.3-9-13-16-16.3l-1.7-1c-.6 0-1.2-.3-1.7-.5l-5-2.5"/><path id="path869" fill="#52783b" d="M150.5 251h1c1.8 1 3.3 2 4.4 3.8l-2-1.3c-.5-.4-1-.8-1.8-.5 0 .3 0 .5.3.6h.6l2.3 1.3c.2 0 .6.4.4.8-.7-.6-1.6-1-2.4-1v.3c.2 0 .4 0 .6.4.3.2.3.7 0 .8l-2.6-3c-1.3-1.8-3-3.7-4.8-5-.6-.4-1.2-1.2-1.2-1.8 0 .3.3.7.7 1 .5.2 1 0 1-.4.3 0 .4.5.4.8 0 .2.2.6.6.6l.5-.3c0 .6.3 1 .4 1.4h.3l1 1.2c.2 0 .3 0 .4.3m12.4 16c.8 3 1 6 1 8.8v4l-.8-.2c.3-17-4-33.7-4.6-50.6.3 0 .5-.3 1 0 0 1.5 0 3.3.2 5l1.8 17.5c0 1.3.3 2.5.5 3.8 0 1 .5 2 .8 3 .7 2.8 0 5.7.6 8.7"/><path id="path871" fill="#a67c52" d="M147 267l1.5 7.6.4 1.8 3.6 18h20l3.8-18 .2-1.4 1.5-7.5h-31z"/><path id="path873" fill="#c69c6d" d="M163 267l-.4 27h7.2l2.7-17.8.4-1.4 1-7.6h-11z"/><path id="path875" fill="#a67c52" d="M147 274.8h31V267h-31v7.6z"/><path id="path877" fill="#c69c6d" d="M163.8 274.8H174V267h-10.3v7.6z"/><g id="g879" transform="matrix(-2.0137279,0,0,-2.0137256,877.51402,472.00325)" clip-path="url(#v)"><path id="path881" fill="#e6e6e6" d="M362 98l-.2-.8h-13.5l-.2.8h14z"/></g><path id="path883" fill="#666" d="M104.6 399H99v-65.5c0-1.3 1-2.3 2-2.3h1.4c1.2 0 2 1 2 2.3V399z"/><path id="path885" fill="#ccc" d="M102.5 331.3h-1c-1 0-1.8 1-1.8 2.2V399h1v-65.5c0-1.3 1-2.3 2-2.3"/><path id="path887" fill="#3d3d3d" d="M104.6 397H99v2h5.6v-2z"/><path id="path889" fill="#666" d="M25.3 399h-5.7v-65.5c0-1.3 1-2.3 2.3-2.3h1c1.4 0 2.3 1 2.3 2.3V399z"/><path id="path891" fill="#ccc" d="M23.4 331.3h-1c-1 0-2 1-2 2.2V399h1v-65.5c0-1.3 1-2.3 2-2.3"/><path id="path893" fill="#3d3d3d" d="M25.3 397h-5.7v2h5.6v-2z"/><path id="path895" fill="#666" d="M96 333h-4.5v-16H96v16z"/><path id="path897" fill="#ccc" d="M93.8 333h-1.5v-16h1.5v16z"/><path id="path899" fill="#666" d="M32.8 334h-4.5v-16h4.4v16z"/><path id="path901" fill="#ccc" d="M30.5 334h-1.3v-16h1.3v16z"/><path id="path903" fill="#666" d="M89 355c-18 2.5-36 2.5-53.8 0-7-1.3-12.5-7.5-12.5-14.6v-.3c0-5.5 5-10 10.8-9.5 19 1.8 38.3 2 57.3 0 5.7-.5 10.7 4 10.7 9.8v.3c0 7.3-5.4 13.5-12.5 14.6"/><path id="path905" fill="#4d4d4d" d="M89 347.5c-18 3-36 3-53.8 0-5.8-.8-10.5-5-12-10.5-.2 1-.4 2-.4 3v.5c0 7.3 5.3 13.5 12.4 14.6 18 2.6 35.8 2.6 53.8 0 7-1 12.5-7.4 12.5-14.5v-.3c0-1-.3-2-.5-3-1.5 5.6-6.3 9.8-12 10.7"/><g id="g907" transform="matrix(2.0137279,0,0,-2.0137256,-557.87987,472.00342)" clip-path="url(#w)"><path id="path909" fill="#ccc" d="M293.3 76.5V74l-1 .5h-.2l-.4.2-.4.3v1.5h2.3z"/></g><g id="g911" transform="matrix(2.0137279,0,0,-2.0137256,-557.87987,472.00342)" clip-path="url(#x)"><path id="path913" fill="#ccc" d="M324.7 77v-2l-1-.5-.8-.2h-.7V77h2.3z"/></g><path id="path915" fill="#4d4d4d" d="M81.8 274.4H42.5c-8 0-15 6.2-15.4 14.5l-1.5 24c-.3 3 1.8 6 5 7 20.5 6.3 41.6 6.3 63.3 0 3-1 5.2-4 5-7.3L97 289c-.4-8.3-7-14.6-15.3-14.6"/><path id="path917" fill="#666" d="M40.8 279.6h42.7c5.3 0 10 2.5 13.3 6.3-1.8-6.8-8-11.6-15-11.6H42.5c-7 0-13.3 5-15 11.6 3-3.8 8-6.3 13.3-6.3"/><path id="path919" fill="#ffd49f" d="M484.6 61c0 5-4 9-9 9s-9-4-9-9 4-9 9-9 9 4.3 9 9"/><path id="path921" fill="#ccc" d="M475 27c-21.6 0-39 17.6-39 39.3h78c0-21.7-17.4-39.2-39-39.2"/><path id="path923" fill="#ebfffd" fill-opacity=".2" d="M475.4 27c-21.6 0-39 17.6-39 39.3h39z"/><path id="path925" fill="#3b3942" d="M478.4 27l.4-1c0-1.8-1.3-3-2.6-3.3V0H475v22.8c-1.5.2-2.5 1.4-2.5 3 0 .4 0 .8.3 1.2h-9v2H486V27h-7.8z"/><path id="path927" fill="#fff" d="M828.3 350h-43v20h43v-20z"/><path id="path929" fill="#e3f5ff" d="M787.5 352.5h38.8v15.3h-38.8v-15.3z"/><path id="path931" fill="#bccbd4" d="M799.6 360c0 3-2.5 5.5-5.4 5.5-2.8 0-5.2-2.5-5.2-5.4 0-2.8 2.5-5 5.3-5 3 0 5.3 2.4 5.3 5.3"/><path id="path933" fill="#859096" d="M795 357.5c0 .5-.3 1-.8 1s-.8-.5-.8-1 .4-1 1-1c.4 0 .7.5.7 1m0 5.4c0 .4-.3.8-.8.8s-.8-.4-.8-1c0-.4.4-.8 1-.8.4 0 .7.4.7 1"/><path id="path935" fill="#bccbd4" d="M812 360c0 3-2.4 5.5-5.3 5.5-2.8 0-5.3-2.5-5.3-5.4 0-2.8 2.5-5 5.5-5s5.3 2.4 5.3 5.3"/><path id="path937" fill="#859096" d="M807.5 357.5c0 .5-.3 1-.8 1s-.8-.5-.8-1 .3-1 .8-1 .8.5.8 1m0 5.4c0 .4-.4.8-1 .8-.4 0-.7-.4-.7-1 0-.4.3-.8.8-.8s.8.4.8 1"/><path id="path939" fill="#bccbd4" d="M824.6 360c0 3-2.5 5.5-5.4 5.5-2.8 0-5.3-2.5-5.3-5.4 0-2.8 2.4-5 5.4-5 3 0 5.4 2.4 5.4 5.3"/><path id="path941" fill="#859096" d="M820 357.5c0 .5-.3 1-.8 1s-.8-.5-.8-1 .4-1 1-1c.4 0 .7.5.7 1m0 5.4c0 .4-.3.8-.8.8s-.8-.4-.8-1c0-.4.4-.8 1-.8.4 0 .7.4.7 1"/><path id="path943" fill="#4d4d4d" d="M824.6 360c0 3-2.5 5.5-5.4 5.5-2.8 0-5.3-2.5-5.3-5.4 0-2.8 2.4-5 5.4-5 3 0 5.4 2.4 5.4 5.3"/><path id="path945" fill="#666" d="M819.3 364.3c-1 0-1.7-.8-1.7-1.7v-5c0-.7 1-1.5 1.8-1.5 1 0 1.6 1 1.6 1.8v5c0 1-.8 1.7-1.6 1.7"/><path id="path947" fill="#666" d="M840.8 361.6h-21.5v-3h21.5v3z"/><path id="path949" fill="#f2f2f2" d="M837.5 285h99v103.8c0 1.2-1 2-2.4 2h-94c-1.3 0-2.5-1-2.5-2.2V285z"/><path id="path951" fill="#4d4d4d" d="M837.5 332.5h99v2h-16v3.5c0 .8-.6 1.3-1.4 1.3h-19c-1.5 0-2.8-.6-3.8-1.6l-2.5-3.2h-56.2v-2zm0 21.8h99v2h-16v3.3c0 .8-.6 1.3-1.4 1.3h-19c-1.5 0-2.8-.6-3.8-1.6l-2.5-3.3h-56.2v-2zm0 17h99v2h-16v3.4c0 .8-.6 1.6-1.4 1.6h-19c-1.5 0-2.8-.7-3.8-1.8l-2.5-3h-56.2V371z"/><path id="path953" fill="#fff" d="M837.5 266.6V285h23v-16c0-1.3 1.3-2.5 2.5-2.5h63.3c1.2 0 2-1.3 2-2.5l-.3-2.5-1-8.8c0-1.2-1-2-2-2h-84c-1 0-2 1-2 2.2l-1.4 13.4v.4"/><path id="path955" fill="#ccc" d="M857 265.5V283c0 1.3 1 2 2 2h1.5v-16c0-1 1.3-2.4 2.5-2.4h63.3c1.2 0 2-1.2 2-2.5l-.3-2.4h-67.3c-2 0-3.7 2-3.7 4"/><path id="path957" fill="#fff" d="M860.5 283h74c1.4 0 2 1 2 2h-76v-1.8z"/><path id="path959" fill="#4d4d4d" d="M926.3 266.5v5l1.5.6c1.8 1 3 2.6 3 4.6v2.5c2 0 3.7 1.8 3.7 4h-74v-16.8h65.8z"/><path id="path961" fill="#ccc" d="M846.8 246H921c1.3 0 2.5 1 2.5 2.3v2.4h-79v-2.4c0-1.3 1-2.3 2.4-2.3"/><path id="path963" fill="#333" d="M855 234.4l32 7.8.6-4-32-6-.4 2.2z"/><path id="path965" fill="#ccc" d="M893.3 237.3H908c5.5 0 10.6 3.2 13 8.3v.4h-51.6c6.7-5.8 15.2-8.8 23.7-8.8"/><path id="path967" fill="#5d8cab" d="M868 260.8h38.6c1 0 1.8-.8 1.8-1.7v-5c0-1-.8-1.5-1.6-1.5H868c-1 0-1.6.6-1.6 1.5v5c0 1 .7 1.8 1.6 1.8"/><path id="path969" fill="#333" d="M850.8 392c2.8 0 5 2.3 5 5v.4h-10v-.5c0-3 2.2-5 5-5"/><path id="path971" fill="#333" d="M849 390.8h3.5v2.7H849v-2.8z"/><path id="path973" fill="#4d4d4d" d="M847 397c0 2.3 1.6 4 3.6 4 2.5 0 4-2 4-4 0-2.3-1.6-4-4-4-2 0-3.6 1.8-3.6 4"/><path id="path975" fill="#333" d="M928.5 392.3c2.8 0 5 2.2 5 5v.2h-10v-.4c0-2.4 2.3-5 5-5"/><path id="path977" fill="#333" d="M927 391h3.3v2.8H927v-3z"/><path id="path979" fill="#4d4d4d" d="M924.6 397.3c0 2.2 1.8 4 3.8 4 2.5 0 4-1.8 4-4s-1.6-3.8-4-3.8c-2 0-3.6 1.6-3.6 3.8"/><path id="path981" fill="#e3ab43" d="M120.3 143.8h107v5h-107V144z"/><path id="path983" fill="#d15f61" d="M131 101h10v42.8h-10v-43z"/><path id="path985" fill="#fff" d="M132 136h8v4.6h-8.3V136z"/><path id="path987" fill="#7771b4" fill-opacity=".4" d="M131 101l10 43h-10v-43z"/><path id="path989" fill="#d15f61" d="M142 101h10v42.8h-10v-43z"/><path id="path991" fill="#fff" d="M143 136h8v4.6h-8V136z"/><path id="path993" fill="#7771b4" fill-opacity=".4" d="M142 101l10 43h-10v-43z"/><path id="path995" fill="#3b81a6" d="M153 101h10v42.8h-10v-43z"/><path id="path997" fill="#fff" d="M154.3 136h8v4.6h-8V136z"/><path id="path999" fill="#7771b4" fill-opacity=".4" d="M153 101l10 43h-10v-43z"/><path id="path1001" fill="#3b81a6" d="M169.6 133.8h43v10h-43v-10z"/><path id="path1003" fill="#fff" d="M172 134.8h16.8v8h-17v-8z"/><g id="g1005" fill="#7771b4" fill-opacity=".4" transform="matrix(-1.328683,0,0,-1.3286815,855.46381,652.08745)" clip-path="url(#y)"><path id="path1007" d="M484 382.5l32 7.5v-7.5h-32z"/></g><path id="path1009" fill="#4d4d4d" d="M207 142c1.6 0 3-1.4 3-3s-1.4-3-3-3c-2 0-3 1.3-3 3 0 1.8 1 3 3 3"/><path id="path1011" fill="#d6c489" d="M204.5 138.8c0-1.3 1.3-2.6 2.5-2.6 1.3 0 2.5 1.3 2.5 2.6 0 1.4-1.3 2.4-2.5 2.4-1.3 0-2.5-1-2.5-2.4m6 0c0-2-1.6-3.4-3.5-3.4-2 0-3.5 1.5-3.5 3.5s1.5 3.6 3.5 3.6 3.4-1.7 3.4-3.7"/><path id="path1013" fill="#4d4d4d" d="M174.6 135.6h-1.2v6.5h1.2v-6.4zm2.5 0h-1v6.5h1v-6.4zm2.5 0h-1.3v6.5h1.3v-6.4z"/><path id="path1015" fill="#31a81d" d="M165 123.8h43v10h-43v-10z"/><path id="path1017" fill="#fff" d="M167.3 124.6H184v8.2h-16.8v-8.2z"/><g id="g1019" fill="#7771b4" fill-opacity=".4" transform="matrix(-1.328683,0,0,-1.3286815,855.46381,652.08745)" clip-path="url(#z)"><path id="path1021" d="M487.3 390l32.4 7.7V390h-32.4z"/></g><path id="path1023" fill="#4d4d4d" d="M202.5 131.6c1.5 0 3-1.2 3-2.8 0-1.8-1.4-3-3-3-2 0-3.3 1.2-3.3 3 0 1.6 1.3 2.8 3 2.8"/><path id="path1025" fill="#d6c489" d="M200 128.8c0-1.3 1-2.6 2.5-2.6 1.3 0 2.5 1.3 2.5 2.5 0 1.3-1.3 2.6-2.5 2.6-1.5 0-2.5-1.3-2.5-2.6m6 0c0-2-1.8-3.4-3.6-3.4-2 0-3.8 1.5-3.8 3.5 0 1.8 1.8 3.3 3.8 3.3 1.7 0 3.3-1.4 3.3-3.3"/><path id="path1027" fill="#4d4d4d" d="M170 125.5h-1.3v6.3h1.3v-6.3zm2.5 0h-1.3v6.3h1.3v-6.3zm2.5 0h-1.3v6.3h1.3v-6.3z"/><ellipse id="ellipse1029" cx="482.1" cy="428" fill="#fff" fill-opacity=".2" ry="24.3" rx="129.1"/><path id="path1031" fill="#333" d="M485 415h18.8l16.2-4.8v4.8h16.6v-6.6H520l-17.6 5H485v1.6z"/><path id="path1033" fill="#604831" d="M485 413v-1.4c0-1.5 1.3-2.7 2.5-2.7h5c6.8-.4 13.4-2.4 19-6l4.5-3h20l1 8.4h-16.6l-17.8 5h-17c-.4 0-.6-.3-.6-.5"/><path id="path1035" fill="#464646" d="M537 406.6c-9-2.5-18.4-3.7-28-2.5l-8-144.5 35 5 1 142z"/><path id="path1037" fill="#333" d="M532.5 434.5h12l11.4-9.8v1.6l-5.5 6.4c-1.3 1.8-3.5 2.8-5.8 2.8h-12c-.3 0-.5 0-.5-.5 0-.3 0-.5.4-.5"/><path id="path1039" fill="#604831" d="M556.3 415v8.8c0 .6-.4 1.2-1 1.8l-5.2 6c-1.4 2-3.6 3-6 3h-10.3c-1 0-1.7-1-1.7-2 0-.7 0-1.6.5-2.4.3-.6.6-1 1-1.2l5.5-6.3.8-1 2.5-6.7H556z"/><path id="path1041" fill="#6b5137" d="M549 422.5l-2.4 4c-1.6 2.3-4 3.5-7 3.5h-7l1-1.3 5.4-6.2h10z"/><path id="path1043" fill-opacity=".2" d="M523 286.3V404l14 2.5-1-120.3h-13z"/><path id="path1045" fill="#464646" d="M561 422.5h-22.6l-18-158h34l1 68c8 15.3 5.5 62 5.5 90"/><g id="g6005" class="arm2"><path id="path1047" fill="#e6a470" d="M443.6 250.8l.6.7c1 .7 2.2.5 2.8-.5l5.8-9.4-2.5-1.7-6.7 11.2z"/><path id="path1049" fill="#d99b6a" d="M452 241.3l-4 8.8.6.3c.8.4 1.8 0 2.2-1l2-4c.5-1.2 1.8-1.6 3-1.2 2.4 1 5.2.8 6.2-.3l-5.6-6.3-5.6 2.3 1.3 1.5z"/><path id="path1051" fill="#f2b787" d="M448 250c.4 0 1 0 1.2-.4l.3-.8c0-.2 0-.6-.3-.7h-.2l-1 2zm-4.5.8c.6.4 1.2.3 1.6-.3l.7-1c.3-.4 0-1-.2-1.2l-.3-.2-1.6 2.8z"/><path id="path1053" fill="#f0ab75" d="M441 249.4l9.3-10 2.5 2-8 8.7c-.7.8-1.7 1-2.4.5-.4 0-.5-.3-.7-.4l-.7-.6z"/><path id="path1055" fill="#feb67c" d="M440.5 243.6c.5 1.5 2 2.2 3.2 1.6l9-3.5c2.6-1 5-.3 7 1.6.6 1 .6 2.2 0 3l-3.8 4c-.6.6-.6 1.8 0 2.4.6.7 1.6.7 2.4 0l5-5.3 7-7.5-3-8-27 11.2v.5z"/><path id="path1057" fill="#fec08e" d="M458.5 250.7l-.5-.6c-.4-.3-.8-.3-1.3 0l-.6.8c-.3.5-.3 1.3 0 1.8.6.5 1.4.5 1.7 0l1-.8c.2-.4.2-1 0-1.3"/><path id="path1059" fill="#414042" d="M486.5 220l-21.2 11.3 5 12.5 31.5-14.8-15.3-9zm15.3 9l-15.3-9 8.7-35c1.2-5 6.2-7.2 10-5l1.4.8c3 1.6 4.4 5.2 3.6 8.7l-8.4 39.7z"/><path id="path1061" fill="#fff" d="M465.5 232l-3.3 1.8 4.5 11.2 3.5-1.7-4.5-11.3z"/></g><path id="path1063" fill="#3c3c3c" d="M499 180l26.3-10H556l-1.3 23.8 3.8 94.4H499v-108z"/><path id="path1065" fill="#f5a167" d="M529.5 146.5l-14 19.5 1 7.3-3 1.2 7.5 13.8s7.5-8.8 13.3-15V167c-4.4-5-4.8-16.5-4.8-20.5z"/><path id="path1067" fill="#fff" d="M513.5 174.5l5 42.8 19.6-47.6-4.3-3.7-14.3 14-3-6.6-3 1.2z"/><path id="path1069" fill-opacity=".1" d="M519.3 180l1.7-6.3 13-8.7 4 5-12 14.5-3.8-6.3-3 2z"/><path id="path1071" fill="#fff" d="M519.3 180l-3-8-2.8 2.6v4.7l2.5-2.6 3.4 3.4z"/><path id="path1073" fill="#feb67c" d="M497.5 138.4c-1.8 3-1 13 0 14 .6 1.3 1 2 2.5 2.6 0 1.3-.4 3.3 0 4.3.3 1 5.5 13.2 9.5 13.2s17-5.8 16.3-17c.8-2 3.7-6.3 3.7-8.8 0-2.2-1.3-18.2-15.5-18.7-13.3-.6-15 7-16.6 10.4"/><path id="path1075" fill="#7a4b25" d="M493 146.5c9.5-7.5 16.8 0 24.6-8v-10s-9-6.4-19.6 4c-5 4.6-5 14-5 14"/><path id="path1077" fill="#7a4b25" d="M517.5 138.8s-.8 6.4 2.8 7.7v4.3h4l1.3 3 5-1.2s1.3-14.5-4-20.2c-5-4.8-9-4-9-4v10.3z"/><path id="path1079" fill="#feb67c" d="M525.4 155l-1.8-.3v-7c0-1.3 1-2.6 2.3-2.8h.5c1-.5 2 .4 1.8 1.4l-1 7.5c-.3.8-1.3 1.5-2.2 1"/><path id="path1081" fill-opacity=".2" d="M519 250v38.3h9.8s-4.3.2-5.7-2c-1.4-2.3-4-36.3-4-36.3"/><path id="path1083" fill-opacity=".2" d="M546.8 179.3V228L499 250l11.5 4.3 11.3-9.3 34.7-7.5v-58.3h-9.8z"/><g id="g1085" fill-opacity=".2"><g id="g1087" transform="matrix(1.25,0,0,-1.25,0,475) matrix(1.6690808,0,0,1.6690789,13.46597,-379.96633)" clip-path="url(#A)"><path id="path1089" d="M238 369l1.3 1 1.3-1.2h1.5l1-2 6.7 6.5-6-5.7-1.3 2.3-1.5-1-1.7 1.5-1-1-.2-.6z"/></g></g><g id="g1091" fill-opacity=".2"><g id="g1093" transform="matrix(1.25,0,0,-1.25,0,475) matrix(1.6690808,0,0,1.6690789,13.46597,-379.96633)" clip-path="url(#B)"><path id="path1095" d="M241.7 350.3L250 364l-1.6 2.3 3.2 2-1.7-2.2.7-2-9-13.6z"/></g></g><g id="g1097" fill-opacity=".2"><g id="g1099" transform="matrix(1.25,0,0,-1.25,0,475) matrix(1.6690808,0,0,1.6690789,13.46597,-379.96633)" clip-path="url(#C)"><path id="path1101" d="M235 367l1.7-1-1.2-1.7 4.2-13-4.6 13 1.3 1.5-1 1z"/></g></g><g id="g1103" transform="matrix(0.6122657,0,0,-0.61226501,207.27258,463.03434)" clip-path="url(#D)" opacity=".1"><path id="path1105" fill="#735b4e" d="M527 231h11v14.2h-11v-14z"/></g><path id="path1107" fill="#231f20" d="M485 302c1.6 0 3 5 3 11v99c0 6-1.4 11-3 11h-2.3c-1.6 0-3-5-3-11v-99c0-6 1.3-11 3-11h2z"/><path id="path1109" fill="#d6582f" d="M525.8 360c0 3.3-3.5 6-7.8 6h-68.5c-4.3 0-7.8-2.8-7.8-6v-4c0-3.4 3.6-6 7.8-6H518c4.3 0 7.8 2.5 7.8 6v4z"/><g id="g1111" transform="matrix(0.6122657,0,0,-0.61226501,280.80672,466.84961)" clip-path="url(#E)" opacity=".4"><path id="path1113" fill="#e3582b" d="M387.4 164.8H275.6c-7 0-12.7 4.3-12.7 9.7v6.6c0 5.6 5.5 10 12.5 10 0 0 118.8-26 111.8-26"/></g><path id="path1115" fill="#2b2728" d="M512 370c0 1.8-2.4 3-5 3h-46c-3 0-5.3-1-5.3-3v-1.8c0-1.6 2.6-3 5.3-3h45.5c3 0 5 1.6 5 3.2v1.6z"/><path id="path1117" fill="#231f20" d="M455 433c0 2.4-2 4.3-4.3 4.3-2.4 0-4.3-2-4.3-4.4 0-2.6 2-4.4 4.5-4.4 2.4 0 4 1.8 4 4m66.3.3c0 2.4-2.2 4.3-4.5 4.3-2.5 0-4.3-2-4.3-4.4 0-2.6 2-4.4 4.3-4.4 2.5 0 4.3 1.8 4.3 4"/><path id="path1119" fill="#2b2728" d="M445.3 429.8c.2-2.3-.4-7 7-7.3 0 0 23.4-12 31.3-12 8 0 31.6 12 31.6 12 7.3-.3 7.3 5 7.3 7.3v3.7c-1.3 1.3-8.5.5-9.5 0 0 0-21.3-12-29-12-8 0-29 12-29 12-2.8.6-8.4 1.3-9.6 0v-3.8"/><g id="g1121" transform="matrix(0.6122657,0,0,-0.61226501,280.80672,466.84961)" clip-path="url(#F)" opacity=".4"><path id="path1123" fill="#2b2728" d="M331.4 92.2c13 0 49.4-38.6 48-37.7 0 0-34.8 19.6-47.6 19.6-13 0-47.6-19.4-47.6-19.4-4.4-1 34.4 37.7 47.2 37.7"/></g><path id="path1125" fill="#231f20" d="M516.5 287.3c4.4 26.2 0 48-32.8 48-32.7 0-37-22-32.7-48 4.4-26.3 14.6-48.2 32.8-48.2 18 0 28.3 22 32.7 48.3"/><path id="path1127" fill="#d6582f" d="M515.6 286.6c4.3 25.5 0 46.8-32 46.8-31.7 0-36-21.3-31.7-46.8 4.3-25.4 14.3-46.6 31.8-46.6 17.4 0 27.4 21.3 31.8 46.6"/><path id="path1129" fill="#d99b6a" d="M507 236.6c-2.6 0-22.6 2.3-4 1.7 3.3.7 5.8 1.7 7 4.6.6 1 .3 3-1 3.6l-5.3 3c-.8.4-1.2 1.7-.8 2.7.4 1.2 1.5 1.4 2.4 1l7.5-4.2 10.5-5.4-.6-10.7-16.4 3z" class="hand1"/><path id="path1131" fill="#f2ede1" d="M474 293.8c2.5-.3 5.8.2 8.3-.3 2.2-.4 3.7-2.5 5.8-3.3 2.3-.7 6-.6 8.5-.4 1.3 0 3 .3 4 .6 1.4 0 3 0 4.3.7.7-2.4 8-1 9-1.4 1.6-.2-.5-2.5.8-2.7 0-2.4-6.7-9-8.2-10.6-3-3-3.8-16.8-2.5-20 .3-1.3 5.3-10.3 5.3-10.3 3 2.6 6.2 5 8 8 2.2 3.4 3 7 4 11 2.3 8.3 6 15.3 10 23 3.8 6.8 4 14.3-5.3 16-8.5 1.4-18.4 0-27-.3-9-.3-17-1.6-26-1.2 1-3 0-6 1-8.8"/><path id="path1133" fill="#414042" d="M463.5 369.5c-6-6.3-7-12.5-8.5-17.5-1.3-5-2.3-17.5 0-22.5 2.5-5.3 8-19 8.3-20.8 0-1.7 8.2-1.2 14.3-1.7 6.3-.6 16 1.3 20.5 0 4.6-1.3 8.4 10 10 14 2 3.8 6 18.8 5.5 25.5-.6 6.8-4.4 18.3-6 20-1.4 1.3-2.4 3-2.4 3h-41.4z"/><path id="path1135" fill="#231f20" d="M505.8 346.3c-.8-4.2-2.6-10.7-5.8-13.8-3-3-12 0-16 0-8.4.3-14-2.3-17.5 7.5-3 8.5-2 18.3-3.3 27 0 1 0 1.8.3 2.5 2.8 8.5 28.5 7 37.5 3.3 9.6-4.3 6.3-18 4.8-26.6"/><g id="g1137" transform="matrix(0.6122657,0,0,-0.61226501,280.80672,466.84961)" clip-path="url(#G)" opacity=".2"><path id="path1139" fill="#414042" d="M356 233.6c-3.3 0-8-.3-3.5 2 2 1.3 5 2 7.4 3-1.5 2-9.6 0-12 0-6-.7-11.7-1.3-18-1.3-6.3 0-12 .6-18 1-4.8.5-10-.5-14.6 0l.4-1.5c.6.2 3-.6 4-1.4-2 0-4.5-.6-5.2-1.8 3.3-.6 12-2.2 6-4.7-2.6-1.3-16-3.4-12-6.4 5 4 16.4 3.8 23.6 4 3.7 0 7.3 0 11-.6 3-.3 5.7-1.3 8.8-1 3.4.4 6 2 9.4 2.4 3.6.4 6.5.7 9.8 1.8 2 .7 7.2 1.3 8.5 2.4 2.5 2.4-4 2.2-6 2"/></g><path id="path1141" fill="#d49f77" d="M500.4 334c-5.5-5.4-17-3-15.3 9 1.6 8.6 2 17.4 2.4 26 .2 6.8 3.5 25 4 36 .4 3-.3 5.5-.5 7l-1.4 5.8s1.5 10 4 19.2c1 3.3 5.4 3.4 7.6 1.3 2.3-2.6 0-15-.7-17.3-.4-1.6-.5-3-.5-5 0-.6-.4-3.5 0-7.3.6-8 2.5-20.6 3.3-26.2 1.4-8.8 3.4-18 1.2-26.3-3.4-11.6 2-16.2-3.8-21.8"/><g id="g1143" transform="matrix(0.6122657,0,0,-0.61226501,280.80672,466.84961)" clip-path="url(#H)" opacity=".1"><path id="path1145" fill="#c99e7d" d="M355.8 141.7c1.3 4.2 1 8.4-1.6 11.8-1 1.4-2.2 3-2.4 4.7-.3 2 1 4 2 5.8 1.5 3.7 3.7 7 5 10.8 1 3 4.5 8.2 1.8 11.2l-.7-2.2c-2-2-2.8-4-5.4-5-2.4-1-5-1-7.5-1-2 .2-4 .6-6 1.7-1 1-3 3.8-4.6 2.6-1 1.7 0 9.8-1.7 12.4 1.3-11.4 1.8-23 2.3-34.4.4-7.2 2.7-22 4.6-36.6l.4-1.2c2.8-7.5 4.5-16.2 4.3-24.2 0-1.5 1.4 2.5 1.5 6.5 0 4.3.3 8.8.7 13.2.5 4.4 1.6 8.7 3 13 1.5 3.8 3.3 7.3 4.3 11"/></g><path id="path1147" fill="#414042" d="M490.6 412.5c-2.5 5.5-1 6.8-.7 10 0 2.5-1.4 7.3-1.4 10.6.5 3.4 1.3 6.8 3.5 8.5 2.6 1.8 6.4 1 7.3 1 1-.5 2.7-2 3.4-3.4.8-1 1.3-2.4 1-4-.3-1.5-2.2-10-2.8-14-.6-3-1.4-5.3-1.4-5.3l.3 2.6c0 2.4.3 5.6.4 6.4.5 2.6 1.7 6.8-1.8 7.3-4.4.5-4.7.3-5.7 0-1-.6-1.4-2-1.4-4.6 0-2.5-.7-6.8-1-9-.4-2.4 0-6 0-6"/><path id="path1149" fill="#231f20" d="M488.8 433c.4 3.4.7 7 3.2 8.6 2.5 1.6 5 1.3 7 1.3 1.6-.4 3.3-1.4 4-2.6.6-1.3 1.4-3.8 1-5 0 0 0 8.5-11 5.4-2.6-.8-4-5.6-4-7.6"/><g id="g1151" transform="matrix(0.6122657,0,0,-0.61226501,280.80672,466.84961)" clip-path="url(#I)" opacity=".4"><path id="path1153" fill="#414042" d="M346.8 54.7c2 1 5-.6 7-.5 3 .2 6 2 7.6-.3 1-1.7-2.3-2-5-2-2.5-.5-5 0-8.8-.8-2-.3-3.5 2.3-.8 3.4"/></g><path id="path1155" fill="#d49f77" d="M469.3 336c5-6 16.7-4.3 15.8 7.6-.5 8.5 0 17.3 0 26 0 6.6-1.6 25-1.4 36 0 3 .8 5.5 1.3 7 .3 1.8 1 3.8 1.6 5.6 0 0-1 10-2.7 19.4-.8 3.3-5 3.8-7.6 1.8-2.5-2-1-14.8-.5-17.3 0-1.5.3-3 0-5 0-.5 0-3.4-.5-7-1.3-8-3.8-20.5-5.3-26.4-1.8-8.4-4.7-17.5-3-25.6 2.6-12-3.2-16 2.3-22.3"/><path id="path1157" fill="#414042" d="M484.8 413c3 5.6 1.4 7 1.4 10.4 0 2.2 1.8 7 1.8 10.4 0 3.3-.5 6.7-2.8 8.7-2.4 1.8-6 1.3-7 1.3s-3-1.7-3.7-3c-.8-1.2-1.5-2.4-1.3-3.7l1.8-14.5 1-5.3v9c-.5 2.8-1.4 7 2 7.2 4.5 0 5-.3 5.8-.8 1-.5 1.2-2 1.2-4.5-.3-2.6 0-7 0-9 .3-2.6-.3-6.4-.3-6.4"/><path id="path1159" fill="#231f20" d="M488 433.8c0 3.3 0 6.8-2.5 8.7-2.5 2-5 1.6-6.8 1.6-1.6 0-3.2-1-4-2-.8-1.4-1.7-3.6-1.3-5 0 0 .4 8.6 11.2 4.6 2.5-1 3.5-5.7 3.4-8"/><g id="g1161" transform="matrix(0.6122657,0,0,-0.61226501,280.80672,466.84961)" clip-path="url(#J)" opacity=".4"><path id="path1163" fill="#414042" d="M331.5 53.2c-2 .7-5-1-7-1-2.8 0-6 1.4-7.5-1-.8-1.5 2.4-1.5 5-1.6 2.7 0 5 .6 9 0 2 0 3.3 2.6.5 3.6"/></g><g id="g1165" transform="matrix(0.6122657,0,0,-0.61226501,280.80672,466.84961)" clip-path="url(#K)" opacity=".1"><path id="path1167" fill="#c99e7d" d="M309 190c2-.5 4.8-3.8 6.6-5.3 2-1.7 3.7-3.5 5.5-5.4 1-1.2 2-2 2.7-3.6.5-1 .6-3 1.6-3.7 3-2.5 3 4 5.7 3.7.4-2.8-1-4.3-2.8-6-1.2-1.4-2-4.4-4-4-1 2.3-2.5 4.8-4 6.6-1.8 2-4 2.8-5.8 4.5-1.8 1.8-3.4 4.3-4.2 6.8-.6 1.8-3.3 6.8-1.2 6.3"/></g><path id="path1169" fill="#a7a9ac" d="M491 232c-.8-.4-4.3-.6-5-.8-2-.3-4-.6-6-.7h-5c-1.5 0-3 .3-4.5 1-1.3.8-1.6 2-2.5 3.4l-1 2.6c0 .5-.3 1-.4 1.7 0 .4-.4 1.2-.5 1.7v3.8c3.4.6 6.4.8 9.4 1.2 5 .5 13.7 3 17-3 2-3 0-8-1.3-11"/><path id="path1171" fill="#f0c3ad" d="M492 241c-8-2-7-24-6.5-27 0-.6.3-1.3.4-1.8-1 .4-1.8 2-2.6 2.6-1.3 1.2-2.3 2-3.3 3.2-2 3-3 3.8-7 3.8l-1.3.8c0 1.7 1.3 13.2-.8 16-4 5-15.8 9.3-14 9.7 2.6.6 19.4 18.3 22 18.7 6.6.8 9.5-10.6 15.5-13.3 9.5-4 2-11.8-2.3-12.8"/><path id="path1173" fill="#e7e8e8" d="M492 288.8c0-6.3-2-13.4-3.8-19.6-1.7-5.6-10.4-8-12-13.7-1-2.8-.6-6.8-1.3-9.4 0 0-5-3.6-8.3-5l-.8-2.6c-3 2.7-7.3 3.5-11 5.2-2.4 1.3-6 4.5-5.5 6 .4 1.2 2 4 3 5 1.3 1.4 2.3 3 3 4.7 1.4 2.8-3.4 14-1.6 16.7 4 5.8 6.6 17 8.3 23.8 1.6 6.2-2.6 11.2-3.3 15.3-.4 3.6-5 11-2 11 3-.3 6.3 0 8.8 0 5 .4 6.6-2.5 8.7-2 7.5 1.4 11.3 1 15.4 1 4 0 2.4-25.3 2.4-36.4"/><path id="path1175" fill="#dedfe0" d="M486 294c-2.6 0-5.8 1-8.3.5-2.2-.4-3.7-2.5-5.8-3.3-2.3-.6-6-.6-8.4-.4-1.5 0-3 .3-4.4.6-1.2.2-3 0-4 1-.8-2.6-8.2-1.4-9-1.4-1.6-.4-.7-1.8-2-2 0-2 2.8-4.4 4.3-6l6-6c7.4-10-3.5-29-3.5-29-3.3 1.5-5.3 4.4-7.3 7.6-2 3.3-4.2 7-5.2 10.8-2.3 8.4-6 15.4-10 23-3.8 7-4 14.4 5.4 16.2 8.4 1.3 18.3 0 27-.4 8.8-.6 17-1.8 26-1.4-1.4-3-.4-6.6-1.4-9.6"/><path id="path1177" fill="#f2ede1" d="M479.4 292.5c-1-6-2.5-15.4-.6-21.5l5-16.5c.8-2.5.4-6.6 1.2-9.4 0 0 5-3.4 8.3-5l2-2.4c2.8 3 5.8 3.5 9.6 5.4 2 1.3 6 2.8 5.3 6-.4 1-2.2 3.6-3 5-1.3 1-2.3 3-3.2 4.6-1 2.8.8 11.8 2 14.8 2 5-4.4 13-3.3 26.7.6 6 2 8.4 3.4 12.4 1.6 4 7 15 5.5 15-7 0-13-4.6-16.8-4.3-3.7.6-9.6 3-13.3 2.6-.3-2.7-.3-20.2-2.3-33"/><path id="path1179" fill="#e8e3d8" d="M491 232s5.5 7.3 5.4 8.5c-.3 6-4.5 15.8-4.8 14-.6-3.6-6.7-8.6-6.7-8.6s7.4-7 6-14"/><g id="g1181" fill="#dedfe0" transform="matrix(0.6122657,0,0,-0.61226501,280.80672,466.84961)" clip-path="url(#L)" opacity=".5"><path id="path1183" d="M389.5 291.3c1-.7 2.5-2 3-3.2.8-1.2.5-3.4 2-4.2.3 5.3-.7 9-5.8 11.3l-10.3 4.8c1.6-2 3-4 3.2-5.4l2.3-1c1.6-.8 3.7-1 5.4-2m1.6-23c-4.4 2.4-9 4-13.8 5.4-1.2.3-6.3 1.7-5-.6.6-1 10.4-5.5 12.6-8.5 3.8 0 7.6 0 11.2.5-1.8 1.3-3.5 2.5-5 3.3m-58.6 89c.3-2.6 2.5-4.6 4.6-6 1.8-1.4 5.4-3 7.6-2.6 0 0 1 4.5 1.3 7.2.4 3 1.6 6 2.3 8.8.7 2.8 1.6 4.8 3.7 6-1.2 1-2.5 2-3.8 3.5l-3-4.5c-5-2.6-12-9-12-9-.4-1-.6-2.2-.8-3.4m-33.7-86c-1.6-.5-3.2-1-5-1-3.5-.8-10-1-13 .7.4 2 1 3.6 1.8 5.5.7 1.4 2 3.3 2 4.8-2.4-2-4.2-3.5-6-6-1.6-2.4-3.4-4.6-6.5-5.4-3-.7-5.5 0-5.3 3.3 0 2.5 1.6 4.2 2.2 6.5-2.5-.7-3.8-1.8-5.6-3.4-1.4-1.3-4.8-4.6-6.7-4.7-3-.4 0 4.4.7 5.7 1.3 2.4 2.8 4.3 5 6l-4-2.2c-2.8-1.5-13.6-6.8-14.8-1-.6 2.5 1.2 5.5 2 7.7 1.2 2.5 2 5 2.8 7.7 1.6 5.6 3.5 11 6.3 16.2 2.8 5.2 5.8 10.2 6 16.2 0 2.6.7 6 .7 8.5-1.4-3-2.8-6.4-3.5-9-3.8-13.8-9.8-25-16.5-37.6-6-11.2-6.5-23.5 8.8-26.3 14-2.4 30-.2 44.3.5h1.2c0-.5 0-1 .2-1.6 2.6-11.6-6.7-20-5.3-27.5.4-3-2.5-6-2.5-6l7.6.2c0 2.3 1.8 2 3.3 3.4 1 1 4.3 3 4.4 4.6 0 1.4-2.2 2.5-3 3.5-4 5 1.8 11.7 4.7 15.7l2.3 3c1.8-1.3 11 14 8.7 14.6v.4c-2 .6-4.6-.3-6.7-.8l-10.8-2.6zm-9 90.4c4.7.8 10.5-.6 13-4.6 2.6-3.6 0-14.6 4-11 4.4 4 9.7.8 11.5 4-.2 3-.5 6.3-1.3 8.8 0 0-8 6.5-13.3 9l-1.4 4.6c-4.6-5-11.5-6-17.6-9.4-2.4-1.4-.4-2 5-1.3"/><path id="path1185" d="M395 281.2c.4 1.5-2.4 3.5-3.4 4.5-1.2 1.3-2.5 2.5-4 3.3-1.5.6-4.2 1-6.2 1.8.2-.7 0-1.3-.8-1.5h-3.4c3.3-1.2 6.5-2.6 10-3.5 3-.8 5-3 7.7-4.6m-20.2-14c-3 2.6-5.5 6-8.8 8-1 .8-2 1.3-3 1.7 1-2.7 2.4-5 4.4-7 1.5-1.5 3.8-3 5-5l5.3-.2-3 2.3m24.5 45c-2.6 5.6-4.8 11.4-6.5 17.7-1.6 6-3 12.3-6.5 17.6-.6 1-1.3 2-2 2.8l.4-2c1.5-5.4 2.8-11 4-16.5 1.4-5.5 3.5-10.7 7-15.2 1-1.5 2.3-3 3.6-4.3"/></g><path id="path1193" fill="#e0b89d" d="M480.8 298.8c-.6-2-3.8-3-5.6-3.6-.4 0-1.2-1-1.8-.8-8.5 1.2-6.5 2-11 4.2-2 1-6.6 1.8-8.6 2.3-1.3 0-5.8 0-4.7 2 1 1.6 6.4 1.5 7.6 1.3 3.3-.8 4-.7 5.6-.7 2.6 0 5-.6 7.6-1.2 2-.5 4.2-1.3 6.6-1.3 1.2 0 5-.3 4.5-2.4"/><path id="path1195" fill="#dedfe0" d="M484.6 270.3c0 .3-.2.7-.6.7h-1.3c-.2 0-.4-.4-.4-.8v-1c0-.3.2-.6.6-.6h1c.4 0 .6 0 .6.5v1z"/><path id="path1197" fill="#bcbec0" d="M484.5 270.3c0 .2-.4.4-.6.4h-1c-.3 0-.5-.2-.5-.4v-1c0-.3 0-.6.5-.6h1c.3 0 .6.3.6.7v1z"/><path id="path1199" fill="#939598" d="M483.3 269.8s0 .2-.3.2v-.3h.3m.7 0v.3c-.3 0-.4 0-.4-.3h.3"/><path id="path1201" fill="#dedfe0" d="M483.3 279.6c0 .4-.3.6-.7.6h-1c-.4 0-.6-.2-.6-.6v-1c0-.5.3-1 .6-1h1.3s.4.5.4 1v.8z"/><path id="path1203" fill="#bcbec0" d="M483 279.5c0 .4 0 .6-.5.6h-1s-.4 0-.4-.4v-1c0-.2 0-.5.5-.5h1c.3 0 .5.4.5.6v.8z"/><path id="path1205" fill="#939598" d="M482 279h-.4l.3.3m.5-.2h-.3.3v.3"/><path id="path1207" fill="#dedfe0" d="M483 289.3c0 .3-.3.7-.6.7H481c-.3 0-.5-.4-.5-.8v-1c0-.3.3-.6.6-.6h1.4c.2 0 .5.4.5.8v1z"/><path id="path1209" fill="#bcbec0" d="M483 289.3c0 .2-.4.4-.8.4h-.8s-.4-.2-.4-.4v-1c0-.3.3-.6.5-.6h1c.4 0 .6.3.6.7v1z"/><path id="path1211" fill="#939598" d="M481.6 288.8s0 .2-.2.2v-.4h.4m.7 0s0 .4-.3.4v-.4h.3"/><path id="path1213" fill="#dedfe0" d="M483.5 300c0 .3-.3.6-.6.6h-1.4c-.2 0-.5-.4-.5-.7v-1.4c0-.2 0-.5.6-.5h1.3s.4.4.4.8v1.2z"/><path id="path1215" fill="#bcbec0" d="M483.4 300s-.3.4-.6.4h-1c-.3 0-.6-.3-.6-.5v-1c0-.5.3-.8.7-.8h.8c.3 0 .6.3.6.7v.8z"/><path id="path1217" fill="#939598" d="M482 299.4v.2-.2m1 0v.2c-.4 0-.5 0-.5-.2h.3"/><path id="path1219" fill="#dedfe0" d="M484.5 311.3c0 .2-.3.6-.6.6h-1c-.5 0-.8-.5-.8-1v-1c0-.4.3-.6.7-.6h1c.4 0 .6.2.6.6v1.3z"/><path id="path1221" fill="#bcbec0" d="M484.4 311.3s-.3.3-.6.3h-1c-.2 0-.6-.2-.6-.5v-1c0-.3.4-.5.7-.5h.8c.3 0 .6.3.6.6v1z"/><path id="path1223" fill="#939598" d="M483 310.6v.3-.4m.8 0v.3s-.3 0-.3-.4h.3"/><path id="path1225" fill="#dedfe0" d="M485 320.8c0 .3 0 .7-.5.7h-1.3c-.2 0-.4-.4-.4-.8v-1c0-.3.2-.6.6-.6h1.2c.3 0 .5.4.5.8v1z"/><path id="path1227" fill="#bcbec0" d="M485 320.8c0 .2-.4.4-.6.4h-1c-.3 0-.5-.2-.5-.4v-1c0-.4 0-.7.5-.7h1s.5.4.5.8v.7z"/><path id="path1229" fill="#939598" d="M483.8 320.3s0 .2-.3.2v-.3h.3m.7 0v.3c-.3 0-.4 0-.4-.3h.4"/><path id="path1231" fill="#d1d3d4" d="M469 232.8s-5.5 7.4-5.4 8.7c.3 6 4.5 15.8 4.8 14 .6-3.6 6.7-8.6 6.7-8.6s-7.4-7-6-14.3"/><g id="g1233" transform="matrix(0.6122657,0,0,-0.61226501,280.80672,466.84961)" clip-path="url(#M)"><path id="path1235" fill="#361608" d="M309.4 401.3c-7.4 7.4-15.5 14-15.3 24.8.5 12.6 7 23.7 17 27 12 4.4 29.8.8 37-10 6.5-10 1.8-27.4-3.3-35.4-8.6-13.7-35.2-6.2-35.2-6.2"/></g><g id="g1237" transform="matrix(0.6122657,0,0,-0.61226501,280.80672,466.84961)" clip-path="url(#N)" opacity=".4"><path id="path1239" fill="#422c1d" d="M303.2 406.2c-7.6 15-8.3 29.5 0 39.5 4.4 5.3 10 8 20 9-6.5 0-16-1-22.2-9.8-4.4-6.6-6-16-5-24.5.7-6 7.2-14.4 7.2-14.4"/></g><path id="path1241" fill="#361608" d="M469.3 222.5s2.2 4.4 2.2 6.5c0 2.3-.8 4.6-2.5 6.3-1 1.4-5.4 1.2-3.8 5 .7 1.6 4.3 2 4.8 4 .8 2-3 3.7-5.5 2.8 1.8 2 6.3 1.4 7-1 1.4-4.6-8.5-6-6.6-11 .8-2.5 4-4.3 4.3-7 .4-2-.3-4.3-.3-6.5 0 0 0 1 .5 1.3"/><g id="g5992" class="arm1"><g id="g5982"><path id="path1187" fill="#e6a470" d="M493 242l.6 1c.4 1.2 1.8 2 3 1.2l11.7-5.5-1.5-3.8-13.8 6.8z"/><path id="path1191" fill="#feb67c" d="M488.4 241l15-7 2 3.6-12.8 5.8c-1.3.7-2.6.3-3.3-.7l-.4-.6z"/><path id="path1243" fill="#fff" fill-opacity=".4" d="M488.8 240.6c.5.7 1.2 1.2 2 .7l1.3-.5c.5-.2.8-1 .5-1.2l-.2-.7-3.4 1.7z"/><g id="g1425" fill="#feb67c"><path id="path1427" d="M503.4 237l-7.5 8.4.4.7c1 1 2 1 3 0l3.6-4c1-1.2 3.4-3.7 4.5-2.7 1.3 1.2 4 5.7 7 6 2.8-.2 4 1.3 4.6 1l-1.4-13.4-14.3 1z"/></g><g id="g1429"><path id="path1431" fill="#fff" d="M520.4 231.6l-4.7 1 1.6 15 5-.6-2-15.2z"/></g><path id="path1435-8" fill="#373737" d="M548 222.7v.2l-29.3 7.6.5 19.2 44-11.6c3.6-.8 6-4.5 5.7-8.7l-.6-6.8-2.4-5-18 .3z"/></g><g id="g1437" fill="#fff" fill-opacity=".4"><path id="path1439" d="M496 245c.3.6 1 .6 1 0l1-.4v-1l-.4-.3-1.6 2z"/></g></g><path id="path1245" fill="#361608" d="M490.5 213.8s2.5 6 2.5 8.7c-.3 3 .4 7-1.3 9.3-1.2 1.8-4 4.3-3.4 6.7.7 2.5 2.4 2.3 3 4.8 1 3-3 5-5.3 3.7 1.8 2.5 7.5 2 8.3-1.3 1.2-6.2-9-7.4-7.2-14 1-3.3 3-6.7 3.6-10.3.4-2.8-.4-6-.4-8.8 0 0 0 1.3.6 1.3"/><path id="path1247" fill="#f7d3bc" d="M491.3 205.4c-1-2.5-2.8-5-5-5.8-1.7-.5-7.2.3-7.8.3-.6 0-6.3-1-8-.5-2 .8-3.6 3-4.6 5.8-.6 1.2-1 5-1 7 0 2.4 2.3 10 4 12.4 1 1.3 3.4 4 4 4.4.8.5 4 2.6 5.6 2.6 1.8 0 5-2 5.5-2.5 1-.3 3-2.6 4-4 1.8-2.6 4-10 4-12.6 0-2-.3-5.8-.8-7.2"/><g id="g1249" transform="matrix(0.6122657,0,0,-0.61226501,280.80672,466.84961)" clip-path="url(#O)" opacity=".3"><path id="path1251" fill="#e0d5ce" d="M343.4 426.5c-1.3 4.3-4.3 8.3-7.7 9.4-2.8.7-11.8-.5-13-.5-1 0-10 1.2-12.8.3-3.5-1.2-6.5-5.2-8-9.5-.6-2.3-1-8.3-1-11.4 0-.5 2-11 3.2-13.8 0 0-3.8 18 4.2 29.8 3 4.4 10.6 2.4 15.6 4.6 0 0 1-3.2 8.5-4.5 4.3-.5 5-1 7.6-4 5-5.2 2-21.3 1.7-24.6 0 0 1 2 1.6 4.7 1 4 1.4 8 1.4 8 0 3.3-.4 9.3-1.2 11.6"/></g><g id="g1253" transform="matrix(0.6122657,0,0,-0.61226501,280.80672,466.84961)" clip-path="url(#P)" opacity=".4"><path id="path1255" fill="#e1a58a" d="M323.3 401.7c1 0 1.2.4 1.4.7.2.3.8.4 1.2.4.4 0 1-.5 1.3.3 0-.6-.4-1.2-1.3-1.4-.2 0-1 0-1.2-.2-.3 0-.2-.3-.5-.4-.5-.5-.8-.4-1.5-.3-.7 0-.2 1-3 .6-.6 0-1 .6-.8 1.2.2-.5.5-.4.6-.3.5.2 1 .3 1.7.3 1 0 1.3-.8 2-.8"/></g><g id="g1257"><g id="g1259" transform="matrix(1.25,0,0,-1.25,0,475) matrix(0.48981256,0,0,0.48981201,224.64538,6.52031)" clip-path="url(#Q)" opacity=".7"><path id="path1261" fill="#7d483a" d="M321.6 401.6c.8-.2-.3-.2-.8 0-.4 0-1.4.2-.5.2l1.3-.2"/></g></g><g id="g1263"><g id="g1265" transform="matrix(1.25,0,0,-1.25,0,475) matrix(0.48981256,0,0,0.48981201,224.64538,6.52031)" clip-path="url(#R)" opacity=".7"><path id="path1267" fill="#7d483a" d="M326.2 401.8c-.2-.3-.7-.3-1.2-.5-.3 0-.6 0-.5.2.2.2.6 0 1 .2h.7"/></g></g><g id="g1269"><g id="g1271" transform="matrix(1.25,0,0,-1.25,0,475) matrix(0.48981256,0,0,0.48981201,224.64538,6.52031)" clip-path="url(#S)" opacity=".5"><path id="path1273" fill="#f9e6dc" d="M321 415c-.3-.7-.7-1.4-1.5-4.7l-1-3.2c0-1 .4-1.4.5-2.5.3 0 1.3 1.6 1.4 2 .4 1 .5 1.5.5 2.7v6"/></g></g><g id="g1275"><path id="path1277" fill="#4f392b" d="M465 211c-.4 0-2.5 5.8-2.5 8.6 0 3 2.5 5 4 7.5 1.3 2 3 5 2 7.3-.6 2.4-4 3.4-4.6 6-1 2.8 3 5 5.4 3.7-1.8 2.5-6.3 1.8-7-1.3-1-6.2 9-8.4 7-15-1-3.4-4-5.7-4.5-9.3-.6-3 0-6 0-8.8 0 0 0 1.3-.3 1.3"/></g><g id="g1279"><path id="path1281" fill="#422c1d" d="M482 196.5c-2-1.3-4.4-1.8-6.8-2-2.7-.4-6.2-.4-8.4-2.4-1.6-1-1.6-3.4-.3-5 1.3-1.4 3-1.6 5-2 3-.4 6.3-2 9.6-1.4 2.6.4 7 2.5 6.4 6-.4 2.8-5.5 7-5.5 7"/></g><g id="g1283"><g id="g1285" transform="matrix(1.25,0,0,-1.25,0,475) matrix(0.48981256,0,0,0.48981201,224.64538,6.52031)" clip-path="url(#T)" opacity=".4"><path id="path1287" fill="#422c1d" d="M326 445.2c2.5 3.7 4.8 7.8 6 12 .4 1.2.8 2.5.8 3.6-1.6-4.4-1.5-5.3-5.7-12l-1-3c0 2.3-.6 5-1 7.3-.8 3-2 4.8-4 7-.8 1-2 2-3 2l-2.5-.7c.5-1 6.4-2.5 7-4.3 1-2.5 1.6-5 2.5-7.3.3-1.2.8-2.4.7-3.7 0 2.7-4.8 5.7-7 6.7-3 1.4-5.6 2.8-8 5-.8.8-.6 1.7-1.7 2-.5-2 4.2-4.6 5.7-5.6 2.6-1.5 6-2 7.8-4.5 1-1.2 1.6-3 3-4-1.7 1-2.5 2.7-3.6 4-1.6 1.5-3.8 2.5-5.6 3.3-3.2 1.4-6.6 2.5-10 1.6-2-.5-4 1.7-4.5 0-1-2.3 8-.4 11-1 2.7-.8 7-2 8.7-4.6.5-.7 1-2 1.5-2.5.6-.6 1.5-.6 2-1.3l.7.2z"/></g></g><g id="g1289"><path id="path1291" fill="#361608" d="M488.8 188.8c10.4 2 5.2 12.7 4 13.7.4-2.5 1-6.3-1-7-5.4-2.4-11.2 3-12.4 3-.6 0 .6-2.4 1-4 0 0 .7-7 8.6-5.6"/></g><g id="g1293"><path id="path1295" fill="#4f392b" d="M483.3 195.8c0 1 2.2.3 3 .4 5 0 6.4 4.7 6.6 8 0-1.3.8-2.2 1.4-3.4 1.2-2.3-.5-4.7-2.8-6.3-2.5-1.6-8.4-2.3-8.2 1.3z"/></g><g id="g1297"><path id="path1299" fill="#361608" d="M462.5 208c-1-1-.6-2.4-1.5-3.6-.6-.8-1.6-1.3-2-2.3-.4-1 .3-3.3 1.3-4 1-1 1.4 0 1.4 0-3.4-1.3 0-8 3.4-9 1.4-.3 3.6.8 5 1.3 3 .7 6.4-1.3 9 1.4.6.7 1 1.8 1.5 2.8l-.6 2.3c-1.8.7-5.8 0-7 0-4.4.4-6 3.7-8 7.4-.3.4-1.6 5.3-2.5 3.8"/></g><g id="g1301"><path id="path1303" fill="#361608" d="M476.3 193.3c-3-1-13.3-1.3-16.7 11.7-.4 1.6 0 4.4 2 6 0-2 .6-3.3 1.4-4.3 3.8-4 2-6.7 6-9.3 2-1.5 8.5-2.8 11-1 0 0-1.4-2.5-4-3.3"/></g><g id="g1305"><path id="path1307" fill="#422c1d" d="M480.3 194.8c-1-3.8-7.3-4.8-10.8-4.3-5 .8-9.4 2.8-10.6 7.5-.6 2.5.8 7 .8 7 1.8-8 10.3-12.5 19.7-6.8l1-3.4z"/></g><g id="g1309"><path id="path1311" fill="#4f392b" d="M480 199.5c-1.6-4.8-8.8-5-12.8-2.5-4.4 3-4 8.3-2.4 12.8.6 2.2.7 4.3.2 6.7 2.5-2 1.3-6.8 1.3-9.5.2-4 3.2-6.3 6.8-7 1.8-.4 3.4.6 5 0 .5 0 2-.5 2-.5"/></g><g id="g1313"><path id="path1315" fill="#422c1d" d="M479.6 198c1-4.5 5.4-3.4 8.5-1.3 4 2.3 5 6 6 10 .6 4.2 0 7.6 0 11.7 0 3.5 2 6.8 2 10.3-.4 3.4-4.4 6.3-7.6 4.6 3 0 6-2 5.6-5 0-1.8-1-3.2-1.5-4.7-.8-2-1.8-3.7-1.5-5.8.5-3.4 1.5-6.3.5-9.8-.8-3-1.6-5-4.6-5.5-10.6-2.3-7.3-3.8-7-4.5"/></g><g id="g1317"><path id="path1319" fill="#4f392b" d="M480.3 194.6c-1-3.7-7.3-4.6-11-4-5 .7-9.3 2.7-10.6 7.4-.6 2.5 1 7 1 7 1.7-12.3 14.4-17.3 20.3-9l.3-1.4z"/></g><g id="g1321"><path id="path1323" fill="#4f392b" d="M480.3 194.4c.3-1 2.4-4.8 5.7-5 1.6-.4 3-.3 4.5.5 1 0 2 1.6 2.5 2.6.5.8.5 1.3.4 2.3 0-1-.3-1.4-.8-2-.6-1-1.2-1.4-2.5-1.4-1-.5-2.6-.6-4-.2-3 .7-6 3.7-6 4.7l.3-1.8z"/></g><g id="g1325"><path id="path1327" fill="#a5cdcf" d="M354.3 295v-.5c0-.6-.6-1.3-1.3-1.3v.3c-.5-.6-1-1-1.6-1-.6 0-1.3.8-1.5 1.4-1 0-1.8.6-1.8 1.4 0 .5.3 1 .6 1.2-.6 0-.7.5-.7 1 0 1 1.4 1.6 2.6 1.6h.6v5h1.3c-.3-.4 0-1.4-.5-3.4V299l1-.8c1.5 0 2.5-.7 2.5-1.6 0-.7-.5-1.2-1.3-1.5"/></g><g id="g1329"><path id="path1331" fill="#a5cdcf" d="M333.4 303c1.5 0 2.5-.8 2.5-1.6 0-.6-.6-1.3-1.4-1.3v-.5c0-.6-.5-1.3-1.2-1.3v.3c-.5-.5-1-1-1.6-1-.8 0-1.3.6-1.7 1.4-.8 0-1.4.5-1.4 1 0 .8.3 1 .6 1.4-.4.4-.6.7-.6 1.2 0 .8 1.3 1.5 2.5 1.5h.8v1.4h.7l-.3-1.3 1.3-1"/></g><g id="g1333"><path id="path1335" fill="#a5cdcf" d="M345 290c0-1-.6-2-1.5-2-.4-1-1-1.8-1.8-1.8-.6 0-1.2.6-1.4 1.3h-.4c-1 0-1.4.6-1.4 1.5v.6c-1 .4-1.5 1.3-1.5 2.3 0 1 1.4 2.4 2.6 2.4h.3c0 .4.5 1 1 1.2v2.3c-.4 3-.8 4.4-1 5h2c0-.8-.3-2.3-.3-5v-2.3h.7c1.5 0 2.5-1 2.5-2.4 0-.6 0-1.3-.6-1.6.4-.3.6-1 .6-1.6"/></g><path id="path1337" fill="#ededed" d="M357 277h-30.4v6.3H357V277z"/><g id="g1339" fill-opacity=".4"><g id="g1341" transform="matrix(1.25,0,0,-1.25,0,475) matrix(0.48981256,0,0,0.48981201,54.85575,6.72077)" clip-path="url(#U)" opacity=".5"><path id="path1343" d="M471 309.6h-49.6v-10l49.5 10z"/></g></g><g id="g1345"><path id="path1347" fill="#386885" d="M357 277.5v5c0 .4-.4.6-.6.6h-31v1.4H358c.3 0 .5-.3.5-.6V276c0-.2-.3-.4-.5-.4h-32.5v1.2h30.8c.3 0 .6.3.6.5"/></g><path id="path1349" fill="#d1d3d4" d="M322 304h36.8v-7h-37v7z"/><g id="g1351"><g id="g1353" transform="matrix(1.25,0,0,-1.25,0,475) matrix(0.48981256,0,0,0.48981201,54.85575,6.72077)" clip-path="url(#V)" opacity=".3"><path id="path1355" fill="#d1d3d4" d="M413.6 265.6l60.2 11.3h-60.2v-11.5z"/></g></g><g id="g1357"><path id="path1359" fill="#bd4848" d="M322 303.5v-6s0-.3.4-.3H360V296h-39.3c-.4 0-1 .4-1 1.2v7.5c0 .6.6 1.3 1 1.3H360V304h-37.5c-.5 0-.6 0-.6-.4"/></g><g id="g1361"><path id="path1363" fill="#5e7831" d="M323.8 289.5v-4.3h32.7v-.8h-33.8c-.2 0-.4.2-.4.5v5s.2.4.4.4h33.8v-1h-32.8z"/></g><g id="g1365"><path id="path1367" fill="#d1d3d4" d="M323.8 289.5H355v-4.3h-31.3s-.3.3-.3.6v3.2c0 .4.2.5.5.5"/></g><g id="g1369" fill-opacity=".4"><g id="g1371" transform="matrix(1.25,0,0,-1.25,0,475) matrix(0.48981256,0,0,0.48981201,54.85575,6.72077)" clip-path="url(#W)" opacity=".5"><path id="path1373" d="M417 289.2h51v7l-52-6.2c0-.5.5-.8 1-.8"/></g></g><g id="g1375"><path id="path1377" fill="#2d9181" d="M361.3 291.3v3.7H324v.6h38.5c.4 0 .6 0 .6-.4V291c0-.3 0-.5-.4-.5h-38.4v.8h37z"/></g><g id="g1379"><path id="path1381" fill="#ededed" d="M362 291.3h-36.4v3.7H362v-3.8"/></g><g id="g1383"><g id="g1385" transform="matrix(1.25,0,0,-1.25,0,475) matrix(0.48981256,0,0,0.48981201,54.85575,6.72077)" clip-path="url(#X)" opacity=".5"><path id="path1387" fill-opacity=".4" d="M479.5 286.3H420v-6l59.7 5.8c0 .3 0 .4-.2.4"/></g></g><g id="g1389"><path id="path1391" fill="#1b8c5d" d="M393.8 301l-2.2 2.6-45.2-37.5-.4.6 47 38.8c0 .2.5.4.8 0l2.4-3c.3-.5 0-1-.2-1l-47-39-.4.7 45 37.6z"/></g><g id="g1393"><path id="path1395" fill="#d1d3d4" d="M395 301.6L350.4 265l-2.3 2.8 44.5 36.7h.4l2-2.5v-.4"/></g><g id="g1397"><g id="g1399" transform="matrix(1.25,0,0,-1.25,0,475) matrix(0.48981256,0,0,0.48981201,54.85575,6.72077)" clip-path="url(#Y)" opacity=".3"><path id="path1401" fill="#d1d3d4" d="M456.8 324.7l72.4-60h.4l3.5 4.3c.3 0-76 55.7-76 55.7"/></g></g><g id="g1403"><path id="path1405" fill="#bcbec0" d="M515.3 261.3h-75.8c-1.3 0-2 1-2 2l1 40.3c0 1 .8 2 2 2h73.8c.5 0 1.2-.4 1.6-1l.3-1 1.2-40.5c0-1-1-2-2.3-2"/></g><g id="g1407" fill="#fff"><g id="g1409" transform="matrix(1.25,0,0,-1.25,0,475) matrix(0.48981256,0,0,0.48981201,224.64538,6.52031)" clip-path="url(#Z)" opacity=".2"><path id="path1411" d="M381.2 333.8H264.7c62-1.8 97.6-.8 113.6-3.8 8-1.5 3.4-32 5.4-61.4l.8 61.8c0 2-1.5 3.4-3.3 3.4"/></g></g><g id="g1413"><g id="g1415" transform="matrix(1.25,0,0,-1.25,0,475) matrix(0.48981256,0,0,0.48981201,224.64538,6.52031)" clip-path="url(#aa)" opacity=".1"><path id="path1417" fill="#58595b" d="M258 326.8c-1.3 1.4-2.3 7.4-2.3 5.4l1.8-65.6c0-2 1.6-3.5 3.5-3.5h120.2S312 272 258 327"/></g></g><path id="path1435" fill="#373737" d="M555.3 169.6c-5.4.3-9.5 5.4-9.2 11.7l2 42h20.4l-3-43c-.3-5.7-4-10-9-10.4v-.4h-1z"/><path id="path1441" fill="#d3d3d3" d="M300.4 443h9V305.7h-9V443zm104.4 0h8V305.7h-8V443z"/><path id="path1443" fill="#c1c1c1" d="M309.5 434h95.3V316.7h-95.3V434z"/><path id="path1445" fill="#d3d3d3" d="M603.5 443h6.8V305.7h-6.8V443z"/><g id="g1447"><path id="path1449" fill="#e8e8e8" d="M623 316.5H287.6c-.5 0-1-.5-1-1v-8.8c0-.4.5-1 1-1H623c.6 0 1 .6 1 1v8.8c0 .5-.4 1-1 1"/></g><g id="g1451"><g id="g1453" transform="matrix(1.25,0,0,-1.25,0,475) matrix(0.48981256,0,0,0.48981201,224.64538,6.52031)" clip-path="url(#ae)" opacity=".1"><path id="path1455" fill="#735b4e" d="M215.7 231H32v14.7h183.7V231z"/></g></g></svg>